<svg width="40" height="40" viewBox="0 0 40 40" fill="none" xmlns="http://www.w3.org/2000/svg">
<g clip-path="url(#clip0_54_3777)">
<path d="M32.5 11.6667C32.5 9.36667 30.6333 7.5 28.3333 7.5H11.6667C9.36667 7.5 7.5 9.36667 7.5 11.6667V28.3333C7.5 30.6333 9.36667 32.5 11.6667 32.5H28.3333C30.6333 32.5 32.5 30.6333 32.5 28.3333V11.6667ZM30.8333 28.3333C30.8333 29.7167 29.7167 30.8333 28.3333 30.8333H11.6667C10.2833 30.8333 9.16667 29.7167 9.16667 28.3333V11.6667C9.16667 10.2833 10.2833 9.16667 11.6667 9.16667H28.3333C29.7167 9.16667 30.8333 10.2833 30.8333 11.6667V28.3333Z" fill="#104C97"/>
<path d="M26.6667 19.1667H20.8333V13.3333C20.8333 12.8667 20.4667 12.5 20 12.5C19.5333 12.5 19.1667 12.8667 19.1667 13.3333V19.1667H13.3333C12.8667 19.1667 12.5 19.5333 12.5 20C12.5 20.4667 12.8667 20.8333 13.3333 20.8333H19.1667V26.6667C19.1667 27.1333 19.5333 27.5 20 27.5C20.4667 27.5 20.8333 27.1333 20.8333 26.6667V20.8333H26.6667C27.1333 20.8333 27.5 20.4667 27.5 20C27.5 19.5333 27.1333 19.1667 26.6667 19.1667Z" fill="#104C97"/>
</g>
<defs>
<clipPath id="clip0_54_3777">
<rect width="40" height="40" fill="white"/>
</clipPath>
</defs>
</svg>
