<svg width="40" height="40" viewBox="0 0 40 40" fill="none" xmlns="http://www.w3.org/2000/svg">
<path d="M32.5 11.6667C32.5 9.36667 30.6333 7.5 28.3333 7.5H11.6667C9.36667 7.5 7.5 9.36667 7.5 11.6667V28.3333C7.5 30.6333 9.36667 32.5 11.6667 32.5H28.3333C30.6333 32.5 32.5 30.6333 32.5 28.3333V11.6667ZM13.3333 20.8333C12.8667 20.8333 12.5 20.4667 12.5 20C12.5 19.5333 12.8667 19.1667 13.3333 19.1667H19.1667V13.3333C19.1667 12.8667 19.5333 12.5 20 12.5C20.4667 12.5 20.8333 12.8667 20.8333 13.3333V19.1667H26.6667C27.1333 19.1667 27.5 19.5333 27.5 20C27.5 20.4667 27.1333 20.8333 26.6667 20.8333H20.8333V26.6667C20.8333 27.1333 20.4667 27.5 20 27.5C19.5333 27.5 19.1667 27.1333 19.1667 26.6667V20.8333H13.3333Z" fill="#104C97"/>
</svg>
