<svg width="40" height="40" viewBox="0 0 40 40" fill="none" xmlns="http://www.w3.org/2000/svg">
<g clip-path="url(#clip0_54_3793)">
<path d="M13.3333 12.5001H26.6667C27.1267 12.5001 27.5 12.1267 27.5 11.6667V10.0001C27.5 8.62175 26.3783 7.50008 25 7.50008H24.1667V6.66675C24.1667 5.28841 23.045 4.16675 21.6667 4.16675H18.3333C16.955 4.16675 15.8333 5.28841 15.8333 6.66675V7.50008H15C13.6217 7.50008 12.5 8.62175 12.5 10.0001V11.6667C12.5 12.1267 12.8733 12.5001 13.3333 12.5001ZM14.1667 10.0001C14.1667 9.54175 14.54 9.16675 15 9.16675H16.6667C17.1267 9.16675 17.5 8.79341 17.5 8.33341V6.66675C17.5 6.20841 17.8733 5.83341 18.3333 5.83341H21.6667C22.125 5.83341 22.5 6.20841 22.5 6.66675V8.33341C22.5 8.79341 22.8733 9.16675 23.3333 9.16675H25C25.4583 9.16675 25.8333 9.54175 25.8333 10.0001V10.8334H14.1667V10.0001Z" fill="#2B2B2B"/>
<path d="M33.9233 34.4101L31.5683 32.0534C32.15 31.2367 32.5017 30.2434 32.5017 29.1651C32.5017 26.4084 30.2583 24.1651 27.5017 24.1651C24.745 24.1651 22.5017 26.4084 22.5017 29.1651C22.5017 31.9217 24.745 34.1651 27.5017 34.1651C28.58 34.1651 29.5733 33.8151 30.39 33.2317L32.745 35.5884C32.9083 35.7517 33.1217 35.8317 33.335 35.8317C33.5483 35.8317 33.7617 35.7501 33.925 35.5884C34.25 35.2634 34.2483 34.7351 33.9233 34.4101ZM27.5 32.5001C25.6617 32.5001 24.1667 31.0051 24.1667 29.1667C24.1667 27.3284 25.6617 25.8334 27.5 25.8334C29.3383 25.8334 30.8333 27.3284 30.8333 29.1667C30.8333 31.0051 29.3383 32.5001 27.5 32.5001Z" fill="#2B2B2B"/>
<path d="M30 10.8334C30.4583 10.8334 30.8333 11.2084 30.8333 11.6667V21.6667C30.8333 22.1267 31.2067 22.5001 31.6667 22.5001C32.1267 22.5001 32.5 22.1267 32.5 21.6667V11.6667C32.5 10.2884 31.3783 9.16675 30 9.16675C29.54 9.16675 29.1667 9.54008 29.1667 10.0001C29.1667 10.4601 29.54 10.8334 30 10.8334Z" fill="#2B2B2B"/>
<path d="M20 34.1667H10C9.54 34.1667 9.16667 33.7917 9.16667 33.3334V11.6667C9.16667 11.2084 9.54 10.8334 10 10.8334C10.46 10.8334 10.8333 10.4601 10.8333 10.0001C10.8333 9.54008 10.46 9.16675 10 9.16675C8.62167 9.16675 7.5 10.2884 7.5 11.6667V33.3334C7.5 34.7117 8.62167 35.8334 10 35.8334H20C20.46 35.8334 20.8333 35.4601 20.8333 35.0001C20.8333 34.5401 20.46 34.1667 20 34.1667Z" fill="#2B2B2B"/>
<path d="M20 19.1667H13.3333C12.8733 19.1667 12.5 19.5401 12.5 20.0001C12.5 20.4601 12.8733 20.8334 13.3333 20.8334H20C20.46 20.8334 20.8333 20.4601 20.8333 20.0001C20.8333 19.5401 20.46 19.1667 20 19.1667Z" fill="#2B2B2B"/>
<path d="M13.3333 25.0001H16.6667C17.1267 25.0001 17.5 24.6267 17.5 24.1667C17.5 23.7067 17.1267 23.3334 16.6667 23.3334H13.3333C12.8733 23.3334 12.5 23.7067 12.5 24.1667C12.5 24.6267 12.8733 25.0001 13.3333 25.0001Z" fill="#2B2B2B"/>
<path d="M13.3333 29.1667H16.6667C17.1267 29.1667 17.5 28.7934 17.5 28.3334C17.5 27.8734 17.1267 27.5001 16.6667 27.5001H13.3333C12.8733 27.5001 12.5 27.8734 12.5 28.3334C12.5 28.7934 12.8733 29.1667 13.3333 29.1667Z" fill="#2B2B2B"/>
</g>
<defs>
<clipPath id="clip0_54_3793">
<rect width="40" height="40" fill="white"/>
</clipPath>
</defs>
</svg>
