<svg width="40" height="40" viewBox="0 0 40 40" fill="none" xmlns="http://www.w3.org/2000/svg">
<path d="M33.8816 17.7067L20.5483 6.04002C20.2349 5.76335 19.7633 5.76335 19.4516 6.04002L6.11825 17.7067C5.85659 17.935 5.76492 18.3 5.88659 18.6267C6.00825 18.9534 6.31992 19.1667 6.66659 19.1667H9.16659V30C9.16659 32.2984 11.0349 34.1667 13.3333 34.1667H26.6666C28.9649 34.1667 30.8333 32.2984 30.8333 30V19.1667H33.3333C33.6799 19.1667 33.9916 18.9517 34.1133 18.6267C34.2349 18.3017 34.1449 17.935 33.8816 17.7067ZM23.3333 20V26.6667H16.6666V20H23.3333Z" fill="#104C97"/>
</svg>
