<svg width="40" height="40" viewBox="0 0 40 40" fill="none" xmlns="http://www.w3.org/2000/svg">
<g clip-path="url(#clip0_54_3785)">
<path d="M15.8333 20V26.6667C15.8333 27.1267 16.2066 27.5 16.6666 27.5H23.3333C23.7933 27.5 24.1666 27.1267 24.1666 26.6667V20C24.1666 19.54 23.7933 19.1667 23.3333 19.1667H16.6666C16.2066 19.1667 15.8333 19.54 15.8333 20ZM17.4999 20.8334H22.4999V25.8334H17.4999V20.8334Z" fill="#2B2B2B"/>
<path d="M33.8816 17.7067L20.5483 6.04002C20.2349 5.76335 19.7649 5.76335 19.4516 6.04002L6.11825 17.7067C5.85659 17.935 5.76492 18.3 5.88659 18.6267C6.00825 18.9534 6.31992 19.1667 6.66659 19.1667H9.16659V30C9.16659 32.2984 11.0366 34.1667 13.3333 34.1667H26.6666C28.9649 34.1667 30.8333 32.2984 30.8333 30V19.1667H33.3333C33.6799 19.1667 33.9916 18.9517 34.1133 18.6267C34.2349 18.3017 34.1449 17.935 33.8816 17.7067ZM29.9999 17.5C29.5399 17.5 29.1666 17.8734 29.1666 18.3334V30C29.1666 31.3784 28.0449 32.5 26.6666 32.5H13.3333C11.9549 32.5 10.8333 31.3784 10.8333 30V18.3334C10.8333 17.8734 10.4599 17.5 9.99992 17.5H8.88492L19.9999 7.77335L31.1149 17.5H29.9999Z" fill="#2B2B2B"/>
</g>
<defs>
<clipPath id="clip0_54_3785">
<rect width="40" height="40" fill="white"/>
</clipPath>
</defs>
</svg>
