<svg width="129" height="952" viewBox="0 0 129 952" fill="none" xmlns="http://www.w3.org/2000/svg">
<mask id="path-1-outside-1_54_3723" maskUnits="userSpaceOnUse" x="0" y="0" width="129" height="952" fill="black">
<rect fill="white" width="129" height="952"/>
<path d="M0 0H128V952H0V0Z"/>
</mask>
<path d="M0 0H128V952H0V0Z" fill="white"/>
<path d="M128 0H127V952H128H129V0H128Z" fill="#C2C2C2" mask="url(#path-1-outside-1_54_3723)"/>
<g clip-path="url(#clip0_54_3723)">
<rect width="128" height="112" transform="translate(0 16)" fill="white"/>
<path d="M77.8816 49.7067L64.5483 38.04C64.2349 37.7634 63.7633 37.7634 63.4516 38.04L50.1183 49.7067C49.8566 49.935 49.7649 50.3 49.8866 50.6267C50.0083 50.9534 50.3199 51.1667 50.6666 51.1667H53.1666V62C53.1666 64.2984 55.0349 66.1667 57.3333 66.1667H70.6666C72.9649 66.1667 74.8333 64.2984 74.8333 62V51.1667H77.3333C77.6799 51.1667 77.9916 50.9517 78.1133 50.6267C78.2349 50.3017 78.1449 49.935 77.8816 49.7067ZM67.3333 52V58.6667H60.6666V52H67.3333Z" fill="#104C97"/>
<rect y="14" width="6" height="114" fill="#104C97"/>
<path d="M51.236 102H49.13V96.762H42.884V102H40.778V89.994H42.884V94.908H49.13V89.994H51.236V102ZM57.8358 102.216C56.4918 102.216 55.4118 101.778 54.5958 100.902C53.7798 100.014 53.3718 98.928 53.3718 97.644C53.3718 96.36 53.7798 95.28 54.5958 94.404C55.4118 93.528 56.4918 93.09 57.8358 93.09C59.1918 93.09 60.2778 93.528 61.0938 94.404C61.9098 95.28 62.3178 96.36 62.3178 97.644C62.3178 98.94 61.9098 100.026 61.0938 100.902C60.2778 101.778 59.1918 102.216 57.8358 102.216ZM57.8358 100.542C58.6158 100.542 59.2278 100.266 59.6718 99.714C60.1278 99.15 60.3558 98.46 60.3558 97.644C60.3558 96.84 60.1278 96.162 59.6718 95.61C59.2278 95.046 58.6158 94.764 57.8358 94.764C57.0678 94.764 56.4558 95.046 55.9998 95.61C55.5558 96.162 55.3338 96.84 55.3338 97.644C55.3338 98.46 55.5558 99.15 55.9998 99.714C56.4558 100.266 57.0678 100.542 57.8358 100.542ZM76.9562 102H75.0662V96.33C75.0662 95.286 74.5922 94.764 73.6442 94.764C73.2482 94.764 72.8642 94.878 72.4922 95.106C72.1202 95.334 71.8322 95.604 71.6282 95.916V102H69.7382V96.33C69.7382 95.286 69.2582 94.764 68.2982 94.764C67.9142 94.764 67.5362 94.878 67.1642 95.106C66.8042 95.334 66.5162 95.61 66.3002 95.934V102H64.4102V93.306H66.3002V94.494C66.5162 94.17 66.8882 93.858 67.4162 93.558C67.9562 93.246 68.5262 93.09 69.1262 93.09C70.3862 93.09 71.1782 93.624 71.5022 94.692C71.7782 94.26 72.1862 93.888 72.7262 93.576C73.2662 93.252 73.8422 93.09 74.4542 93.09C76.1222 93.09 76.9562 93.966 76.9562 95.718V102ZM83.5983 102.216C82.2783 102.216 81.1863 101.796 80.3223 100.956C79.4703 100.104 79.0443 99 79.0443 97.644C79.0443 96.372 79.4583 95.298 80.2863 94.422C81.1263 93.534 82.1823 93.09 83.4543 93.09C84.7383 93.09 85.7703 93.534 86.5503 94.422C87.3423 95.31 87.7383 96.444 87.7383 97.824V98.274H81.0243C81.0963 98.958 81.3783 99.528 81.8703 99.984C82.3623 100.44 83.0043 100.668 83.7963 100.668C84.2403 100.668 84.6843 100.584 85.1283 100.416C85.5843 100.248 85.9623 100.014 86.2623 99.714L87.1263 100.956C86.2503 101.796 85.0743 102.216 83.5983 102.216ZM85.9023 96.942C85.8783 96.342 85.6563 95.808 85.2363 95.34C84.8283 94.872 84.2343 94.638 83.4543 94.638C82.7103 94.638 82.1283 94.872 81.7083 95.34C81.2883 95.796 81.0543 96.33 81.0063 96.942H85.9023Z" fill="#104C97"/>
</g>
<rect y="128" width="128" height="112" rx="4" fill="white"/>
<g clip-path="url(#clip1_54_3723)">
<path d="M76.5 155.667C76.5 153.367 74.6333 151.5 72.3333 151.5H55.6667C53.3667 151.5 51.5 153.367 51.5 155.667V172.333C51.5 174.633 53.3667 176.5 55.6667 176.5H72.3333C74.6333 176.5 76.5 174.633 76.5 172.333V155.667ZM74.8333 172.333C74.8333 173.717 73.7167 174.833 72.3333 174.833H55.6667C54.2833 174.833 53.1667 173.717 53.1667 172.333V155.667C53.1667 154.283 54.2833 153.167 55.6667 153.167H72.3333C73.7167 153.167 74.8333 154.283 74.8333 155.667V172.333Z" fill="#2B2B2B"/>
<path d="M70.6667 163.167H64.8333V157.333C64.8333 156.867 64.4667 156.5 64 156.5C63.5333 156.5 63.1667 156.867 63.1667 157.333V163.167H57.3333C56.8667 163.167 56.5 163.533 56.5 164C56.5 164.467 56.8667 164.833 57.3333 164.833H63.1667V170.667C63.1667 171.133 63.5333 171.5 64 171.5C64.4667 171.5 64.8333 171.133 64.8333 170.667V164.833H70.6667C71.1333 164.833 71.5 164.467 71.5 164C71.5 163.533 71.1333 163.167 70.6667 163.167Z" fill="#2B2B2B"/>
</g>
<path d="M41.578 214H39.184L38.302 211.696H32.794L31.912 214H29.518L34.234 201.994H36.862L41.578 214ZM37.708 209.842L35.548 204.118L33.388 209.842H37.708ZM51.0253 214H49.1353V212.812C48.4153 213.748 47.4853 214.216 46.3453 214.216C45.2053 214.216 44.2753 213.808 43.5553 212.992C42.8353 212.176 42.4753 211.066 42.4753 209.662C42.4753 208.27 42.8353 207.16 43.5553 206.332C44.2753 205.504 45.2053 205.09 46.3453 205.09C47.4853 205.09 48.4153 205.564 49.1353 206.512V201.994H51.0253V214ZM46.8853 212.542C47.3293 212.542 47.7613 212.434 48.1813 212.218C48.6013 212.002 48.9193 211.726 49.1353 211.39V207.934C48.9193 207.598 48.6013 207.322 48.1813 207.106C47.7613 206.878 47.3293 206.764 46.8853 206.764C46.1413 206.764 45.5473 207.034 45.1033 207.574C44.6593 208.114 44.4373 208.81 44.4373 209.662C44.4373 210.514 44.6593 211.21 45.1033 211.75C45.5473 212.278 46.1413 212.542 46.8853 212.542ZM61.6643 214H59.7743V212.812C59.0543 213.748 58.1243 214.216 56.9843 214.216C55.8443 214.216 54.9143 213.808 54.1943 212.992C53.4743 212.176 53.1143 211.066 53.1143 209.662C53.1143 208.27 53.4743 207.16 54.1943 206.332C54.9143 205.504 55.8443 205.09 56.9843 205.09C58.1243 205.09 59.0543 205.564 59.7743 206.512V201.994H61.6643V214ZM57.5243 212.542C57.9683 212.542 58.4003 212.434 58.8203 212.218C59.2403 212.002 59.5583 211.726 59.7743 211.39V207.934C59.5583 207.598 59.2403 207.322 58.8203 207.106C58.4003 206.878 57.9683 206.764 57.5243 206.764C56.7803 206.764 56.1863 207.034 55.7423 207.574C55.2983 208.114 55.0763 208.81 55.0763 209.662C55.0763 210.514 55.2983 211.21 55.7423 211.75C56.1863 212.278 56.7803 212.542 57.5243 212.542ZM67.9293 210.454H63.6093V208.834H67.9293V210.454ZM73.7938 214.216C72.4498 214.216 71.3698 213.778 70.5538 212.902C69.7378 212.014 69.3298 210.928 69.3298 209.644C69.3298 208.36 69.7378 207.28 70.5538 206.404C71.3698 205.528 72.4498 205.09 73.7938 205.09C75.1498 205.09 76.2358 205.528 77.0518 206.404C77.8678 207.28 78.2758 208.36 78.2758 209.644C78.2758 210.94 77.8678 212.026 77.0518 212.902C76.2358 213.778 75.1498 214.216 73.7938 214.216ZM73.7938 212.542C74.5738 212.542 75.1858 212.266 75.6298 211.714C76.0858 211.15 76.3138 210.46 76.3138 209.644C76.3138 208.84 76.0858 208.162 75.6298 207.61C75.1858 207.046 74.5738 206.764 73.7938 206.764C73.0258 206.764 72.4138 207.046 71.9578 207.61C71.5138 208.162 71.2918 208.84 71.2918 209.644C71.2918 210.46 71.5138 211.15 71.9578 211.714C72.4138 212.266 73.0258 212.542 73.7938 212.542ZM88.1261 214H86.2361V208.564C86.2361 207.364 85.6541 206.764 84.4901 206.764C84.0341 206.764 83.6081 206.878 83.2121 207.106C82.8161 207.334 82.4981 207.61 82.2581 207.934V214H80.3681V205.306H82.2581V206.494C82.5821 206.11 83.0141 205.78 83.5541 205.504C84.0941 205.228 84.6821 205.09 85.3181 205.09C86.2421 205.09 86.9381 205.33 87.4061 205.81C87.8861 206.29 88.1261 206.98 88.1261 207.88V214ZM93.731 214.216C92.171 214.216 90.929 213.766 90.005 212.866L90.869 211.498C91.193 211.834 91.631 212.122 92.183 212.362C92.735 212.602 93.281 212.722 93.821 212.722C94.373 212.722 94.793 212.614 95.081 212.398C95.381 212.182 95.531 211.9 95.531 211.552C95.531 211.24 95.351 211 94.991 210.832C94.631 210.652 94.193 210.514 93.677 210.418C93.161 210.31 92.645 210.184 92.129 210.04C91.613 209.884 91.175 209.614 90.815 209.23C90.455 208.846 90.275 208.348 90.275 207.736C90.275 206.992 90.581 206.368 91.193 205.864C91.805 205.348 92.639 205.09 93.695 205.09C95.027 205.09 96.155 205.498 97.079 206.314L96.287 207.646C96.011 207.334 95.645 207.082 95.189 206.89C94.733 206.698 94.241 206.602 93.713 206.602C93.221 206.602 92.825 206.704 92.525 206.908C92.237 207.1 92.093 207.352 92.093 207.664C92.093 207.904 92.219 208.102 92.471 208.258C92.735 208.402 93.059 208.51 93.443 208.582C93.839 208.654 94.265 208.756 94.721 208.888C95.177 209.008 95.597 209.152 95.981 209.32C96.377 209.488 96.701 209.764 96.953 210.148C97.217 210.52 97.349 210.976 97.349 211.516C97.349 212.308 97.031 212.956 96.395 213.46C95.759 213.964 94.871 214.216 93.731 214.216Z" fill="#2B2B2B"/>
<rect width="128" height="112" transform="translate(0 240)" fill="white"/>
<g clip-path="url(#clip2_54_3723)">
<path d="M75.6667 276.833C75.2067 276.833 74.8333 277.207 74.8333 277.667V283.5H53.1667V274.333C53.1667 273.873 52.7933 273.5 52.3333 273.5C51.8733 273.5 51.5 273.873 51.5 274.333V287.667C51.5 288.127 51.8733 288.5 52.3333 288.5C52.7933 288.5 53.1667 288.127 53.1667 287.667V285.167H74.8333V287.667C74.8333 288.127 75.2067 288.5 75.6667 288.5C76.1267 288.5 76.5 288.127 76.5 287.667V277.667C76.5 277.207 76.1267 276.833 75.6667 276.833Z" fill="#2B2B2B"/>
<path d="M54.8333 278.5C54.8333 280.338 56.3283 281.833 58.1667 281.833C60.005 281.833 61.5 280.338 61.5 278.5C61.5 276.662 60.005 275.167 58.1667 275.167C56.3283 275.167 54.8333 276.662 54.8333 278.5ZM59.8333 278.5C59.8333 279.42 59.085 280.167 58.1667 280.167C57.2483 280.167 56.5 279.42 56.5 278.5C56.5 277.58 57.2483 276.833 58.1667 276.833C59.085 276.833 59.8333 277.58 59.8333 278.5Z" fill="#2B2B2B"/>
<path d="M52.8183 271.678L64 263.69L75.1817 271.678C75.33 271.782 75.4983 271.833 75.6667 271.833C75.925 271.833 76.1833 271.712 76.345 271.485C76.6117 271.108 76.525 270.59 76.1517 270.322L64.485 261.988C64.195 261.783 63.8067 261.783 63.5167 261.988L51.85 270.322C51.475 270.59 51.3883 271.11 51.6567 271.485C51.925 271.858 52.4433 271.945 52.8183 271.678Z" fill="#2B2B2B"/>
<path d="M64 275.167C63.54 275.167 63.1667 275.54 63.1667 276V281C63.1667 281.46 63.54 281.833 64 281.833H72.3333C72.7933 281.833 73.1667 281.46 73.1667 281C73.1667 277.783 70.55 275.167 67.3333 275.167H64ZM71.4167 280.167H64.8333V276.833H67.3333C69.345 276.833 71.03 278.267 71.4167 280.167Z" fill="#2B2B2B"/>
</g>
<path d="M46.566 326H44.136L41.472 321.518H39.384V326H37.278V313.994H42.552C43.728 313.994 44.676 314.342 45.396 315.038C46.116 315.734 46.476 316.64 46.476 317.756C46.476 318.764 46.2 319.574 45.648 320.186C45.096 320.786 44.424 321.152 43.632 321.284L46.566 326ZM42.264 319.664C42.864 319.664 43.356 319.49 43.74 319.142C44.124 318.794 44.316 318.332 44.316 317.756C44.316 317.18 44.124 316.718 43.74 316.37C43.356 316.022 42.864 315.848 42.264 315.848H39.384V319.664H42.264ZM52.0858 326.216C50.7418 326.216 49.6618 325.778 48.8458 324.902C48.0298 324.014 47.6218 322.928 47.6218 321.644C47.6218 320.36 48.0298 319.28 48.8458 318.404C49.6618 317.528 50.7418 317.09 52.0858 317.09C53.4418 317.09 54.5278 317.528 55.3438 318.404C56.1598 319.28 56.5678 320.36 56.5678 321.644C56.5678 322.94 56.1598 324.026 55.3438 324.902C54.5278 325.778 53.4418 326.216 52.0858 326.216ZM52.0858 324.542C52.8658 324.542 53.4778 324.266 53.9218 323.714C54.3778 323.15 54.6058 322.46 54.6058 321.644C54.6058 320.84 54.3778 320.162 53.9218 319.61C53.4778 319.046 52.8658 318.764 52.0858 318.764C51.3178 318.764 50.7058 319.046 50.2498 319.61C49.8058 320.162 49.5838 320.84 49.5838 321.644C49.5838 322.46 49.8058 323.15 50.2498 323.714C50.7058 324.266 51.3178 324.542 52.0858 324.542ZM62.5842 326.216C61.2402 326.216 60.1602 325.778 59.3442 324.902C58.5282 324.014 58.1202 322.928 58.1202 321.644C58.1202 320.36 58.5282 319.28 59.3442 318.404C60.1602 317.528 61.2402 317.09 62.5842 317.09C63.9402 317.09 65.0262 317.528 65.8422 318.404C66.6582 319.28 67.0662 320.36 67.0662 321.644C67.0662 322.94 66.6582 324.026 65.8422 324.902C65.0262 325.778 63.9402 326.216 62.5842 326.216ZM62.5842 324.542C63.3642 324.542 63.9762 324.266 64.4202 323.714C64.8762 323.15 65.1042 322.46 65.1042 321.644C65.1042 320.84 64.8762 320.162 64.4202 319.61C63.9762 319.046 63.3642 318.764 62.5842 318.764C61.8162 318.764 61.2042 319.046 60.7482 319.61C60.3042 320.162 60.0822 320.84 60.0822 321.644C60.0822 322.46 60.3042 323.15 60.7482 323.714C61.2042 324.266 61.8162 324.542 62.5842 324.542ZM81.7045 326H79.8145V320.33C79.8145 319.286 79.3405 318.764 78.3925 318.764C77.9965 318.764 77.6125 318.878 77.2405 319.106C76.8685 319.334 76.5805 319.604 76.3765 319.916V326H74.4865V320.33C74.4865 319.286 74.0065 318.764 73.0465 318.764C72.6625 318.764 72.2845 318.878 71.9125 319.106C71.5525 319.334 71.2645 319.61 71.0485 319.934V326H69.1585V317.306H71.0485V318.494C71.2645 318.17 71.6365 317.858 72.1645 317.558C72.7045 317.246 73.2745 317.09 73.8745 317.09C75.1345 317.09 75.9265 317.624 76.2505 318.692C76.5265 318.26 76.9345 317.888 77.4745 317.576C78.0145 317.252 78.5905 317.09 79.2025 317.09C80.8705 317.09 81.7045 317.966 81.7045 319.718V326ZM87.3027 326.216C85.7427 326.216 84.5007 325.766 83.5767 324.866L84.4407 323.498C84.7647 323.834 85.2027 324.122 85.7547 324.362C86.3067 324.602 86.8527 324.722 87.3927 324.722C87.9447 324.722 88.3647 324.614 88.6527 324.398C88.9527 324.182 89.1027 323.9 89.1027 323.552C89.1027 323.24 88.9227 323 88.5627 322.832C88.2027 322.652 87.7647 322.514 87.2487 322.418C86.7327 322.31 86.2167 322.184 85.7007 322.04C85.1847 321.884 84.7467 321.614 84.3867 321.23C84.0267 320.846 83.8467 320.348 83.8467 319.736C83.8467 318.992 84.1527 318.368 84.7647 317.864C85.3767 317.348 86.2107 317.09 87.2667 317.09C88.5987 317.09 89.7267 317.498 90.6507 318.314L89.8587 319.646C89.5827 319.334 89.2167 319.082 88.7607 318.89C88.3047 318.698 87.8127 318.602 87.2847 318.602C86.7927 318.602 86.3967 318.704 86.0967 318.908C85.8087 319.1 85.6647 319.352 85.6647 319.664C85.6647 319.904 85.7907 320.102 86.0427 320.258C86.3067 320.402 86.6307 320.51 87.0147 320.582C87.4107 320.654 87.8367 320.756 88.2927 320.888C88.7487 321.008 89.1687 321.152 89.5527 321.32C89.9487 321.488 90.2727 321.764 90.5247 322.148C90.7887 322.52 90.9207 322.976 90.9207 323.516C90.9207 324.308 90.6027 324.956 89.9667 325.46C89.3307 325.964 88.4427 326.216 87.3027 326.216Z" fill="#2B2B2B"/>
<rect width="128" height="112" transform="translate(0 352)" fill="white"/>
<g clip-path="url(#clip3_54_3723)">
<path d="M57.3333 380.5H70.6667C71.1267 380.5 71.5 380.127 71.5 379.667V378C71.5 376.622 70.3783 375.5 69 375.5H68.1667V374.667C68.1667 373.288 67.045 372.167 65.6667 372.167H62.3333C60.955 372.167 59.8333 373.288 59.8333 374.667V375.5H59C57.6217 375.5 56.5 376.622 56.5 378V379.667C56.5 380.127 56.8733 380.5 57.3333 380.5ZM58.1667 378C58.1667 377.542 58.54 377.167 59 377.167H60.6667C61.1267 377.167 61.5 376.793 61.5 376.333V374.667C61.5 374.208 61.8733 373.833 62.3333 373.833H65.6667C66.125 373.833 66.5 374.208 66.5 374.667V376.333C66.5 376.793 66.8733 377.167 67.3333 377.167H69C69.4583 377.167 69.8333 377.542 69.8333 378V378.833H58.1667V378Z" fill="#2B2B2B"/>
<path d="M77.9233 402.41L75.5683 400.053C76.15 399.237 76.5017 398.243 76.5017 397.165C76.5017 394.408 74.2583 392.165 71.5017 392.165C68.745 392.165 66.5017 394.408 66.5017 397.165C66.5017 399.922 68.745 402.165 71.5017 402.165C72.58 402.165 73.5733 401.815 74.39 401.232L76.745 403.588C76.9083 403.752 77.1217 403.832 77.335 403.832C77.5483 403.832 77.7617 403.75 77.925 403.588C78.25 403.263 78.2483 402.735 77.9233 402.41ZM71.5 400.5C69.6617 400.5 68.1667 399.005 68.1667 397.167C68.1667 395.328 69.6617 393.833 71.5 393.833C73.3383 393.833 74.8333 395.328 74.8333 397.167C74.8333 399.005 73.3383 400.5 71.5 400.5Z" fill="#2B2B2B"/>
<path d="M74 378.833C74.4583 378.833 74.8333 379.208 74.8333 379.667V389.667C74.8333 390.127 75.2067 390.5 75.6667 390.5C76.1267 390.5 76.5 390.127 76.5 389.667V379.667C76.5 378.288 75.3783 377.167 74 377.167C73.54 377.167 73.1667 377.54 73.1667 378C73.1667 378.46 73.54 378.833 74 378.833Z" fill="#2B2B2B"/>
<path d="M64 402.167H54C53.54 402.167 53.1667 401.792 53.1667 401.333V379.667C53.1667 379.208 53.54 378.833 54 378.833C54.46 378.833 54.8333 378.46 54.8333 378C54.8333 377.54 54.46 377.167 54 377.167C52.6217 377.167 51.5 378.288 51.5 379.667V401.333C51.5 402.712 52.6217 403.833 54 403.833H64C64.46 403.833 64.8333 403.46 64.8333 403C64.8333 402.54 64.46 402.167 64 402.167Z" fill="#2B2B2B"/>
<path d="M64 387.167H57.3333C56.8733 387.167 56.5 387.54 56.5 388C56.5 388.46 56.8733 388.833 57.3333 388.833H64C64.46 388.833 64.8333 388.46 64.8333 388C64.8333 387.54 64.46 387.167 64 387.167Z" fill="#2B2B2B"/>
<path d="M57.3333 393H60.6667C61.1267 393 61.5 392.627 61.5 392.167C61.5 391.707 61.1267 391.333 60.6667 391.333H57.3333C56.8733 391.333 56.5 391.707 56.5 392.167C56.5 392.627 56.8733 393 57.3333 393Z" fill="#2B2B2B"/>
<path d="M57.3333 397.167H60.6667C61.1267 397.167 61.5 396.793 61.5 396.333C61.5 395.873 61.1267 395.5 60.6667 395.5H57.3333C56.8733 395.5 56.5 395.873 56.5 396.333C56.5 396.793 56.8733 397.167 57.3333 397.167Z" fill="#2B2B2B"/>
</g>
<path d="M36.578 438H34.184L33.302 435.696H27.794L26.912 438H24.518L29.234 425.994H31.862L36.578 438ZM32.708 433.842L30.548 428.118L28.388 433.842H32.708ZM45.5448 438H43.6548V436.848C42.8388 437.76 41.8128 438.216 40.5768 438.216C38.7168 438.216 37.7868 437.298 37.7868 435.462V429.306H39.6768V434.778C39.6768 435.414 39.8268 435.87 40.1268 436.146C40.4268 436.41 40.8588 436.542 41.4228 436.542C41.8788 436.542 42.3048 436.434 42.7008 436.218C43.0968 436.002 43.4148 435.732 43.6548 435.408V429.306H45.5448V438ZM56.1897 438H54.2997V436.812C53.5797 437.748 52.6497 438.216 51.5097 438.216C50.3697 438.216 49.4397 437.808 48.7197 436.992C47.9997 436.176 47.6397 435.066 47.6397 433.662C47.6397 432.27 47.9997 431.16 48.7197 430.332C49.4397 429.504 50.3697 429.09 51.5097 429.09C52.6497 429.09 53.5797 429.564 54.2997 430.512V425.994H56.1897V438ZM52.0497 436.542C52.4937 436.542 52.9257 436.434 53.3457 436.218C53.7657 436.002 54.0837 435.726 54.2997 435.39V431.934C54.0837 431.598 53.7657 431.322 53.3457 431.106C52.9257 430.878 52.4937 430.764 52.0497 430.764C51.3057 430.764 50.7117 431.034 50.2677 431.574C49.8237 432.114 49.6017 432.81 49.6017 433.662C49.6017 434.514 49.8237 435.21 50.2677 435.75C50.7117 436.278 51.3057 436.542 52.0497 436.542ZM59.7547 428.244C59.4427 428.244 59.1667 428.13 58.9267 427.902C58.6987 427.674 58.5847 427.398 58.5847 427.074C58.5847 426.75 58.6987 426.474 58.9267 426.246C59.1667 426.018 59.4427 425.904 59.7547 425.904C60.0787 425.904 60.3547 426.018 60.5827 426.246C60.8107 426.474 60.9247 426.75 60.9247 427.074C60.9247 427.398 60.8107 427.674 60.5827 427.902C60.3547 428.13 60.0787 428.244 59.7547 428.244ZM60.7087 438H58.8187V429.306H60.7087V438ZM65.9505 438.216C65.2185 438.216 64.6605 438.024 64.2765 437.64C63.9045 437.256 63.7185 436.704 63.7185 435.984V430.962H62.2785V429.306H63.7185V426.93H65.6085V429.306H67.3725V430.962H65.6085V435.516C65.6085 435.828 65.6805 436.08 65.8245 436.272C65.9685 436.452 66.1725 436.542 66.4365 436.542C66.8205 436.542 67.1025 436.44 67.2825 436.236L67.7325 437.658C67.3365 438.03 66.7425 438.216 65.9505 438.216ZM81.5236 438H74.1256V425.994H76.2316V436.146H81.5236V438ZM87.2107 438.216C85.8667 438.216 84.7867 437.778 83.9707 436.902C83.1547 436.014 82.7467 434.928 82.7467 433.644C82.7467 432.36 83.1547 431.28 83.9707 430.404C84.7867 429.528 85.8667 429.09 87.2107 429.09C88.5667 429.09 89.6527 429.528 90.4687 430.404C91.2847 431.28 91.6927 432.36 91.6927 433.644C91.6927 434.94 91.2847 436.026 90.4687 436.902C89.6527 437.778 88.5667 438.216 87.2107 438.216ZM87.2107 436.542C87.9907 436.542 88.6027 436.266 89.0467 435.714C89.5027 435.15 89.7307 434.46 89.7307 433.644C89.7307 432.84 89.5027 432.162 89.0467 431.61C88.6027 431.046 87.9907 430.764 87.2107 430.764C86.4427 430.764 85.8307 431.046 85.3747 431.61C84.9307 432.162 84.7087 432.84 84.7087 433.644C84.7087 434.46 84.9307 435.15 85.3747 435.714C85.8307 436.266 86.4427 436.542 87.2107 436.542ZM97.3131 441.528C95.8371 441.528 94.6251 441.096 93.6771 440.232L94.5591 438.864C95.2071 439.608 96.1251 439.98 97.3131 439.98C98.0331 439.98 98.6391 439.788 99.1311 439.404C99.6351 439.032 99.8871 438.438 99.8871 437.622V436.578C99.1431 437.538 98.2131 438.018 97.0971 438.018C95.9571 438.018 95.0271 437.622 94.3071 436.83C93.5991 436.038 93.2451 434.946 93.2451 433.554C93.2451 432.174 93.5991 431.088 94.3071 430.296C95.0271 429.492 95.9571 429.09 97.0971 429.09C98.2371 429.09 99.1671 429.564 99.8871 430.512V429.306H101.777V437.55C101.777 438.294 101.645 438.936 101.381 439.476C101.129 440.028 100.781 440.442 100.337 440.718C99.8931 441.006 99.4191 441.21 98.9151 441.33C98.4231 441.462 97.8891 441.528 97.3131 441.528ZM97.6551 436.344C98.0871 436.344 98.5131 436.23 98.9331 436.002C99.3531 435.774 99.6711 435.498 99.8871 435.174V431.934C99.6711 431.61 99.3531 431.334 98.9331 431.106C98.5131 430.878 98.0871 430.764 97.6551 430.764C96.9111 430.764 96.3171 431.022 95.8731 431.538C95.4291 432.042 95.2071 432.714 95.2071 433.554C95.2071 434.394 95.4291 435.072 95.8731 435.588C96.3171 436.092 96.9111 436.344 97.6551 436.344Z" fill="#2B2B2B"/>
<rect width="128" height="112" transform="translate(0 464)" fill="white"/>
<g clip-path="url(#clip4_54_3723)">
<path d="M78.1666 500C78.1666 492.188 71.8116 485.833 63.9999 485.833C56.1883 485.833 49.8333 492.188 49.8333 500C49.8333 507.812 56.1883 514.167 63.9983 514.167H63.9999C71.8099 514.167 78.1666 507.812 78.1666 500ZM76.4583 499.167H71.4533C71.2499 494.823 69.4866 490.807 66.4649 487.747C71.9149 488.84 76.0816 493.493 76.4583 499.167ZM63.1666 488.462V499.167H58.2149C58.4266 495.053 60.1749 491.26 63.1666 488.462ZM63.1666 500.833V511.538C60.1749 508.738 58.4266 504.945 58.2149 500.833H63.1666ZM64.8333 511.538V500.833H69.7849C69.5733 504.947 67.8233 508.738 64.8333 511.538ZM64.8333 499.167V488.462C67.8249 491.262 69.5733 495.053 69.7849 499.167H64.8333ZM61.5349 487.747C58.5133 490.805 56.7499 494.822 56.5466 499.167H51.5416C51.9183 493.493 56.0849 488.842 61.5349 487.747ZM51.5416 500.833H56.5466C56.7499 505.178 58.5133 509.195 61.5349 512.253C56.0849 511.158 51.9183 506.507 51.5416 500.833ZM66.4633 512.253C69.4849 509.193 71.2483 505.177 71.4516 500.833H76.4566C76.0799 506.507 71.9133 511.16 66.4633 512.253Z" fill="#2B2B2B"/>
</g>
<path d="M43.384 550H41.278V537.994H46.552C47.764 537.994 48.718 538.354 49.414 539.074C50.122 539.794 50.476 540.688 50.476 541.756C50.476 542.812 50.122 543.706 49.414 544.438C48.718 545.158 47.764 545.518 46.552 545.518H43.384V550ZM46.264 543.664C46.864 543.664 47.356 543.49 47.74 543.142C48.124 542.794 48.316 542.332 48.316 541.756C48.316 541.18 48.124 540.718 47.74 540.37C47.356 540.022 46.864 539.848 46.264 539.848H43.384V543.664H46.264ZM56.0155 550.216C54.6715 550.216 53.5915 549.778 52.7755 548.902C51.9595 548.014 51.5515 546.928 51.5515 545.644C51.5515 544.36 51.9595 543.28 52.7755 542.404C53.5915 541.528 54.6715 541.09 56.0155 541.09C57.3715 541.09 58.4575 541.528 59.2735 542.404C60.0895 543.28 60.4975 544.36 60.4975 545.644C60.4975 546.94 60.0895 548.026 59.2735 548.902C58.4575 549.778 57.3715 550.216 56.0155 550.216ZM56.0155 548.542C56.7955 548.542 57.4075 548.266 57.8515 547.714C58.3075 547.15 58.5355 546.46 58.5355 545.644C58.5355 544.84 58.3075 544.162 57.8515 543.61C57.4075 543.046 56.7955 542.764 56.0155 542.764C55.2475 542.764 54.6355 543.046 54.1795 543.61C53.7355 544.162 53.5135 544.84 53.5135 545.644C53.5135 546.46 53.7355 547.15 54.1795 547.714C54.6355 548.266 55.2475 548.542 56.0155 548.542ZM64.4799 550H62.5899V541.306H64.4799V542.584C64.8159 542.152 65.2359 541.798 65.7399 541.522C66.2439 541.246 66.7659 541.108 67.3059 541.108V542.98C67.1379 542.944 66.9399 542.926 66.7119 542.926C66.3159 542.926 65.8899 543.046 65.4339 543.286C64.9899 543.514 64.6719 543.778 64.4799 544.078V550ZM71.6201 550.216C70.8881 550.216 70.3301 550.024 69.9461 549.64C69.5741 549.256 69.3881 548.704 69.3881 547.984V542.962H67.9481V541.306H69.3881V538.93H71.2781V541.306H73.0421V542.962H71.2781V547.516C71.2781 547.828 71.3501 548.08 71.4941 548.272C71.6381 548.452 71.8421 548.542 72.1061 548.542C72.4901 548.542 72.7721 548.44 72.9521 548.236L73.4021 549.658C73.0061 550.03 72.4121 550.216 71.6201 550.216ZM82.1381 550H80.2481V549.064C79.5761 549.832 78.6401 550.216 77.4401 550.216C76.6481 550.216 75.9461 549.964 75.3341 549.46C74.7221 548.944 74.4161 548.236 74.4161 547.336C74.4161 546.412 74.7161 545.71 75.3161 545.23C75.9281 544.75 76.6361 544.51 77.4401 544.51C78.6761 544.51 79.6121 544.882 80.2481 545.626V544.33C80.2481 543.826 80.0621 543.43 79.6901 543.142C79.3181 542.854 78.8261 542.71 78.2141 542.71C77.2421 542.71 76.3841 543.076 75.6401 543.808L74.8661 542.494C75.8501 541.558 77.0681 541.09 78.5201 541.09C79.5881 541.09 80.4581 541.342 81.1301 541.846C81.8021 542.35 82.1381 543.148 82.1381 544.24V550ZM78.1781 548.92C79.1261 548.92 79.8161 548.62 80.2481 548.02V546.706C79.8161 546.106 79.1261 545.806 78.1781 545.806C77.6381 545.806 77.1941 545.95 76.8461 546.238C76.4981 546.526 76.3241 546.904 76.3241 547.372C76.3241 547.84 76.4981 548.218 76.8461 548.506C77.1941 548.782 77.6381 548.92 78.1781 548.92ZM86.6585 550H84.7685V537.994H86.6585V550Z" fill="#2B2B2B"/>
<rect width="128" height="112" transform="translate(0 576)" fill="white"/>
<g clip-path="url(#clip5_54_3723)">
<path d="M70.6667 599.5H50.6667C49.2884 599.5 48.1667 600.622 48.1667 602V612.833C48.1667 614.212 49.2884 615.333 50.6667 615.333H59.8334C60.2934 615.333 60.6667 614.96 60.6667 614.5C60.6667 614.04 60.2934 613.667 59.8334 613.667H50.6667C50.2067 613.667 49.8334 613.292 49.8334 612.833V607.833H72.3334C72.7934 607.833 73.1667 607.46 73.1667 607V602C73.1667 600.622 72.0451 599.5 70.6667 599.5ZM50.6667 601.167H70.6667C71.1251 601.167 71.5001 601.542 71.5001 602V604.5H49.8334V602C49.8334 601.542 50.2067 601.167 50.6667 601.167Z" fill="#2B2B2B"/>
<path d="M53.1667 609.5C52.7067 609.5 52.3334 609.873 52.3334 610.333C52.3334 610.793 52.7067 611.167 53.1667 611.167H59.8334C60.2934 611.167 60.6667 610.793 60.6667 610.333C60.6667 609.873 60.2934 609.5 59.8334 609.5H53.1667Z" fill="#2B2B2B"/>
<path d="M78.9601 619.818C79.0867 619.647 79.1701 619.453 79.2084 619.24L79.3534 618.42C79.5684 617.197 78.1401 616.315 76.6034 615.725C77.5834 615.177 78.2851 614.472 78.1301 613.59L77.9851 612.768C77.5584 610.377 71.6567 611.345 70.9851 611.467C69.3767 611.75 67.8867 612.198 66.7867 612.735C65.3517 613.433 64.7017 614.225 64.8534 615.087L64.9984 615.907C65.0901 616.423 65.4751 616.803 66.0867 617.072C66.0301 617.875 66.6601 618.618 68.0117 619.277C68.0851 619.312 68.1717 619.343 68.2467 619.378C67.2501 619.75 66.4984 620.308 66.4984 621.167V622C66.4984 624.43 72.4834 624.5 73.1651 624.5C73.8468 624.5 79.8318 624.43 79.8318 622V621.167C79.8318 620.592 79.4817 620.158 78.9601 619.818ZM77.7117 618.13L77.6284 618.81C77.3351 619.093 75.4751 619.428 72.4984 618.903C70.2284 618.502 68.7451 617.858 68.0917 617.478C68.3234 617.492 68.5467 617.513 68.7967 617.513C69.7717 617.513 70.8717 617.41 71.9967 617.212C72.2334 617.17 73.1234 617.002 74.1534 616.7C76.3501 617.232 77.5684 617.947 77.7117 618.13ZM71.2734 613.107C72.4851 612.893 73.5117 612.822 74.3201 612.822C75.4951 612.822 76.2067 612.973 76.3434 613.06L76.4984 613.725C76.3218 614.095 74.6851 615.043 71.7084 615.568C68.7334 616.093 66.8717 615.76 66.6384 615.615L66.4834 614.948C66.6617 614.58 68.2984 613.63 71.2734 613.107ZM73.1667 622.832C70.1451 622.832 68.3684 622.18 68.1667 621.998L68.1301 621.315C68.3217 621.048 69.5184 620.582 71.5401 620.407C71.7634 620.453 71.9818 620.505 72.2101 620.545C73.3351 620.743 74.4351 620.847 75.4101 620.847C75.8284 620.847 76.2234 620.827 76.5884 620.79C76.7117 620.777 76.8034 620.748 76.9184 620.73C77.6384 620.903 78.0751 621.083 78.1667 621.167L78.2034 621.85C77.9634 622.182 76.1884 622.832 73.1667 622.832Z" fill="#2B2B2B"/>
</g>
<path d="M30.246 662H28.14V651.848H24.504V649.994H33.882V651.848H30.246V662ZM41.4634 662H39.5734V661.064C38.9014 661.832 37.9654 662.216 36.7654 662.216C35.9734 662.216 35.2714 661.964 34.6594 661.46C34.0474 660.944 33.7414 660.236 33.7414 659.336C33.7414 658.412 34.0414 657.71 34.6414 657.23C35.2534 656.75 35.9614 656.51 36.7654 656.51C38.0014 656.51 38.9374 656.882 39.5734 657.626V656.33C39.5734 655.826 39.3874 655.43 39.0154 655.142C38.6434 654.854 38.1514 654.71 37.5394 654.71C36.5674 654.71 35.7094 655.076 34.9654 655.808L34.1914 654.494C35.1754 653.558 36.3934 653.09 37.8454 653.09C38.9134 653.09 39.7834 653.342 40.4554 653.846C41.1274 654.35 41.4634 655.148 41.4634 656.24V662ZM37.5034 660.92C38.4514 660.92 39.1414 660.62 39.5734 660.02V658.706C39.1414 658.106 38.4514 657.806 37.5034 657.806C36.9634 657.806 36.5194 657.95 36.1714 658.238C35.8234 658.526 35.6494 658.904 35.6494 659.372C35.6494 659.84 35.8234 660.218 36.1714 660.506C36.5194 660.782 36.9634 660.92 37.5034 660.92ZM51.7078 662H49.5838L47.3338 658.796L45.0658 662H42.9598L46.1458 657.536L43.1398 653.306H45.2638L47.3338 656.258L49.3858 653.306H51.5098L48.5038 657.536L51.7078 662ZM68.0685 662H65.6025C65.3385 661.772 64.9845 661.424 64.5405 660.956C63.5445 661.796 62.4225 662.216 61.1745 662.216C60.0465 662.216 59.1165 661.922 58.3845 661.334C57.6645 660.734 57.3045 659.888 57.3045 658.796C57.3045 657.956 57.5325 657.272 57.9885 656.744C58.4565 656.204 59.0985 655.718 59.9145 655.286C59.3505 654.278 59.0685 653.402 59.0685 652.658C59.0685 651.842 59.3745 651.164 59.9865 650.624C60.6105 650.084 61.3905 649.814 62.3265 649.814C63.1785 649.814 63.8865 650.036 64.4505 650.48C65.0145 650.924 65.2965 651.524 65.2965 652.28C65.2965 652.712 65.2185 653.102 65.0625 653.45C64.9065 653.798 64.6605 654.11 64.3245 654.386C64.0005 654.65 63.6945 654.866 63.4065 655.034C63.1305 655.19 62.7585 655.382 62.2905 655.61C62.6385 656.09 63.0345 656.582 63.4785 657.086C63.9225 657.626 64.3185 658.088 64.6665 658.472C65.1945 657.644 65.5905 656.81 65.8545 655.97L67.4025 656.672C66.8385 657.908 66.2805 658.898 65.7285 659.642C66.3885 660.35 67.1685 661.136 68.0685 662ZM61.4085 660.704C62.1285 660.704 62.8185 660.422 63.4785 659.858C62.7225 659.042 62.2305 658.49 62.0025 658.202C61.4985 657.59 61.0545 657.014 60.6705 656.474C59.7705 657.062 59.3205 657.782 59.3205 658.634C59.3205 659.27 59.5245 659.774 59.9325 660.146C60.3405 660.518 60.8325 660.704 61.4085 660.704ZM60.9765 652.694C60.9765 653.21 61.1745 653.816 61.5705 654.512C62.2425 654.2 62.7525 653.882 63.1005 653.558C63.4485 653.234 63.6225 652.838 63.6225 652.37C63.6225 652.01 63.5085 651.728 63.2805 651.524C63.0525 651.32 62.7645 651.218 62.4165 651.218C62.0085 651.218 61.6665 651.356 61.3905 651.632C61.1145 651.908 60.9765 652.262 60.9765 652.694ZM76.7335 662H74.6275V649.994H82.8535V651.848H76.7335V654.962H82.7275V656.816H76.7335V662ZM88.875 662.216C87.555 662.216 86.463 661.796 85.599 660.956C84.747 660.104 84.321 659 84.321 657.644C84.321 656.372 84.735 655.298 85.563 654.422C86.403 653.534 87.459 653.09 88.731 653.09C90.015 653.09 91.047 653.534 91.827 654.422C92.619 655.31 93.015 656.444 93.015 657.824V658.274H86.301C86.373 658.958 86.655 659.528 87.147 659.984C87.639 660.44 88.281 660.668 89.073 660.668C89.517 660.668 89.961 660.584 90.405 660.416C90.861 660.248 91.239 660.014 91.539 659.714L92.403 660.956C91.527 661.796 90.351 662.216 88.875 662.216ZM91.179 656.942C91.155 656.342 90.933 655.808 90.513 655.34C90.105 654.872 89.511 654.638 88.731 654.638C87.987 654.638 87.405 654.872 86.985 655.34C86.565 655.796 86.331 656.33 86.283 656.942H91.179ZM99.0745 662.216C97.7545 662.216 96.6625 661.796 95.7985 660.956C94.9465 660.104 94.5205 659 94.5205 657.644C94.5205 656.372 94.9345 655.298 95.7625 654.422C96.6025 653.534 97.6585 653.09 98.9305 653.09C100.214 653.09 101.246 653.534 102.026 654.422C102.818 655.31 103.214 656.444 103.214 657.824V658.274H96.5005C96.5725 658.958 96.8545 659.528 97.3465 659.984C97.8385 660.44 98.4805 660.668 99.2725 660.668C99.7165 660.668 100.16 660.584 100.604 660.416C101.06 660.248 101.438 660.014 101.738 659.714L102.602 660.956C101.726 661.796 100.55 662.216 99.0745 662.216ZM101.378 656.942C101.354 656.342 101.132 655.808 100.712 655.34C100.304 654.872 99.7105 654.638 98.9305 654.638C98.1865 654.638 97.6045 654.872 97.1845 655.34C96.7645 655.796 96.5305 656.33 96.4825 656.942H101.378Z" fill="#2B2B2B"/>
<rect width="128" height="112" transform="translate(0 688)" fill="white"/>
<g clip-path="url(#clip6_54_3723)">
<path d="M74.0001 709.833H60.6667C60.4501 709.833 60.2334 709.917 60.0834 710.083L53.4167 716.75C53.2667 716.9 53.1667 717.117 53.1667 717.333V737.333C53.1667 737.8 53.5334 738.167 54.0001 738.167H74.0001C74.4667 738.167 74.8334 737.8 74.8334 737.333V710.667C74.8334 710.2 74.4667 709.833 74.0001 709.833ZM59.8334 712.683V716.5H56.0167L59.8334 712.683ZM73.1667 736.5H54.8334V718.167H60.6667C61.1334 718.167 61.5001 717.8 61.5001 717.333V711.5H73.1667V736.5Z" fill="#2B2B2B"/>
<path d="M59.0001 723.167C58.5334 723.167 58.1667 723.533 58.1667 724C58.1667 724.467 58.5334 724.833 59.0001 724.833H69.0001C69.4667 724.833 69.8334 724.467 69.8334 724C69.8334 723.533 69.4667 723.167 69.0001 723.167H59.0001Z" fill="#2B2B2B"/>
<path d="M69.0001 727.333H59.0001C58.5334 727.333 58.1667 727.7 58.1667 728.167C58.1667 728.633 58.5334 729 59.0001 729H69.0001C69.4667 729 69.8334 728.633 69.8334 728.167C69.8334 727.7 69.4667 727.333 69.0001 727.333Z" fill="#2B2B2B"/>
<path d="M64.0001 731.5H59.0001C58.5334 731.5 58.1667 731.867 58.1667 732.333C58.1667 732.8 58.5334 733.167 59.0001 733.167H64.0001C64.4667 733.167 64.8334 732.8 64.8334 732.333C64.8334 731.867 64.4667 731.5 64.0001 731.5Z" fill="#2B2B2B"/>
</g>
<path d="M45.746 774H43.64V763.848H40.004V761.994H49.382V763.848H45.746V774ZM53.4082 774.216C52.0882 774.216 50.9962 773.796 50.1322 772.956C49.2802 772.104 48.8542 771 48.8542 769.644C48.8542 768.372 49.2682 767.298 50.0962 766.422C50.9362 765.534 51.9922 765.09 53.2642 765.09C54.5482 765.09 55.5802 765.534 56.3602 766.422C57.1522 767.31 57.5482 768.444 57.5482 769.824V770.274H50.8342C50.9062 770.958 51.1882 771.528 51.6802 771.984C52.1722 772.44 52.8142 772.668 53.6062 772.668C54.0502 772.668 54.4942 772.584 54.9382 772.416C55.3942 772.248 55.7722 772.014 56.0722 771.714L56.9362 772.956C56.0602 773.796 54.8842 774.216 53.4082 774.216ZM55.7122 768.942C55.6882 768.342 55.4662 767.808 55.0462 767.34C54.6382 766.872 54.0442 766.638 53.2642 766.638C52.5202 766.638 51.9382 766.872 51.5182 767.34C51.0982 767.796 50.8642 768.33 50.8162 768.942H55.7122ZM61.4838 774H59.5938V765.306H61.4838V766.584C61.8198 766.152 62.2398 765.798 62.7438 765.522C63.2478 765.246 63.7698 765.108 64.3098 765.108V766.98C64.1418 766.944 63.9438 766.926 63.7158 766.926C63.3198 766.926 62.8938 767.046 62.4378 767.286C61.9938 767.514 61.6758 767.778 61.4838 768.078V774ZM78.56 774H76.67V768.33C76.67 767.286 76.196 766.764 75.248 766.764C74.852 766.764 74.468 766.878 74.096 767.106C73.724 767.334 73.436 767.604 73.232 767.916V774H71.342V768.33C71.342 767.286 70.862 766.764 69.902 766.764C69.518 766.764 69.14 766.878 68.768 767.106C68.408 767.334 68.12 767.61 67.904 767.934V774H66.014V765.306H67.904V766.494C68.12 766.17 68.492 765.858 69.02 765.558C69.56 765.246 70.13 765.09 70.73 765.09C71.99 765.09 72.782 765.624 73.106 766.692C73.382 766.26 73.79 765.888 74.33 765.576C74.87 765.252 75.446 765.09 76.058 765.09C77.726 765.09 78.56 765.966 78.56 767.718V774ZM84.1581 774.216C82.5981 774.216 81.3561 773.766 80.4321 772.866L81.2961 771.498C81.6201 771.834 82.0581 772.122 82.6101 772.362C83.1621 772.602 83.7081 772.722 84.2481 772.722C84.8001 772.722 85.2201 772.614 85.5081 772.398C85.8081 772.182 85.9581 771.9 85.9581 771.552C85.9581 771.24 85.7781 771 85.4181 770.832C85.0581 770.652 84.6201 770.514 84.1041 770.418C83.5881 770.31 83.0721 770.184 82.5561 770.04C82.0401 769.884 81.6021 769.614 81.2421 769.23C80.8821 768.846 80.7021 768.348 80.7021 767.736C80.7021 766.992 81.0081 766.368 81.6201 765.864C82.2321 765.348 83.0661 765.09 84.1221 765.09C85.4541 765.09 86.5821 765.498 87.5061 766.314L86.7141 767.646C86.4381 767.334 86.0721 767.082 85.6161 766.89C85.1601 766.698 84.6681 766.602 84.1401 766.602C83.6481 766.602 83.2521 766.704 82.9521 766.908C82.6641 767.1 82.5201 767.352 82.5201 767.664C82.5201 767.904 82.6461 768.102 82.8981 768.258C83.1621 768.402 83.4861 768.51 83.8701 768.582C84.2661 768.654 84.6921 768.756 85.1481 768.888C85.6041 769.008 86.0241 769.152 86.4081 769.32C86.8041 769.488 87.1281 769.764 87.3801 770.148C87.6441 770.52 87.7761 770.976 87.7761 771.516C87.7761 772.308 87.4581 772.956 86.8221 773.46C86.1861 773.964 85.2981 774.216 84.1581 774.216Z" fill="#2B2B2B"/>
<path d="M36.0582 867.992C36.0582 868.56 35.9502 869.096 35.7342 869.6C35.5182 870.104 35.2222 870.544 34.8462 870.92C34.4702 871.296 34.0302 871.592 33.5262 871.808C33.0302 872.024 32.4942 872.132 31.9182 872.132C31.3502 872.132 30.8142 872.024 30.3102 871.808C29.8062 871.592 29.3662 871.296 28.9902 870.92C28.6142 870.544 28.3182 870.104 28.1022 869.6C27.8862 869.096 27.7782 868.56 27.7782 867.992C27.7782 867.416 27.8862 866.88 28.1022 866.384C28.3182 865.88 28.6142 865.44 28.9902 865.064C29.3662 864.688 29.8062 864.392 30.3102 864.176C30.8142 863.96 31.3502 863.852 31.9182 863.852C32.4942 863.852 33.0302 863.96 33.5262 864.176C34.0302 864.392 34.4702 864.688 34.8462 865.064C35.2222 865.44 35.5182 865.88 35.7342 866.384C35.9502 866.88 36.0582 867.416 36.0582 867.992ZM35.6862 867.992C35.6862 867.472 35.5862 866.984 35.3862 866.528C35.1942 866.072 34.9262 865.672 34.5822 865.328C34.2382 864.984 33.8382 864.716 33.3822 864.524C32.9262 864.324 32.4382 864.224 31.9182 864.224C31.3982 864.224 30.9102 864.324 30.4542 864.524C29.9982 864.716 29.5982 864.984 29.2542 865.328C28.9102 865.672 28.6382 866.072 28.4382 866.528C28.2462 866.984 28.1502 867.472 28.1502 867.992C28.1502 868.512 28.2462 869 28.4382 869.456C28.6382 869.912 28.9102 870.312 29.2542 870.656C29.5982 871 29.9982 871.272 30.4542 871.472C30.9102 871.664 31.3982 871.76 31.9182 871.76C32.4382 871.76 32.9262 871.664 33.3822 871.472C33.8382 871.272 34.2382 871 34.5822 870.656C34.9262 870.312 35.1942 869.912 35.3862 869.456C35.5862 869 35.6862 868.512 35.6862 867.992ZM33.7062 869.756C33.4902 870.012 33.2342 870.208 32.9382 870.344C32.6502 870.48 32.3182 870.548 31.9422 870.548C31.5982 870.548 31.2742 870.484 30.9702 870.356C30.6662 870.22 30.4022 870.04 30.1782 869.816C29.9542 869.584 29.7742 869.312 29.6382 869C29.5102 868.688 29.4462 868.348 29.4462 867.98C29.4462 867.612 29.5102 867.272 29.6382 866.96C29.7742 866.648 29.9542 866.38 30.1782 866.156C30.4022 865.924 30.6662 865.744 30.9702 865.616C31.2742 865.488 31.5982 865.424 31.9422 865.424C32.3182 865.424 32.6502 865.496 32.9382 865.64C33.2342 865.776 33.4862 865.968 33.6942 866.216L33.3942 866.504C33.2342 866.296 33.0222 866.132 32.7582 866.012C32.4942 865.884 32.2222 865.82 31.9422 865.82C31.6702 865.82 31.4102 865.872 31.1622 865.976C30.9142 866.08 30.6942 866.228 30.5022 866.42C30.3182 866.604 30.1702 866.832 30.0582 867.104C29.9462 867.368 29.8902 867.66 29.8902 867.98C29.8902 868.292 29.9462 868.584 30.0582 868.856C30.1702 869.12 30.3182 869.348 30.5022 869.54C30.6942 869.732 30.9142 869.884 31.1622 869.996C31.4102 870.1 31.6702 870.152 31.9422 870.152C32.2302 870.152 32.5022 870.088 32.7582 869.96C33.0222 869.832 33.2342 869.664 33.3942 869.456L33.7062 869.756ZM43.3821 872V868.328H38.7021V872H37.7061V863.996H38.7021V867.44H43.3821V863.996H44.3781V872H43.3821ZM46.837 865.376C46.677 865.376 46.537 865.32 46.417 865.208C46.297 865.088 46.237 864.944 46.237 864.776C46.237 864.608 46.297 864.464 46.417 864.344C46.537 864.224 46.677 864.164 46.837 864.164C47.005 864.164 47.149 864.224 47.269 864.344C47.389 864.464 47.449 864.608 47.449 864.776C47.449 864.944 47.389 865.088 47.269 865.208C47.149 865.32 47.005 865.376 46.837 865.376ZM46.393 872V866.204H47.293V872H46.393ZM49.2684 872V863.996H50.1684V872H49.2684ZM53.6077 872.144C53.1757 872.144 52.8517 872.028 52.6357 871.796C52.4277 871.556 52.3237 871.22 52.3237 870.788V866.996H51.3637V866.204H52.3237V864.62H53.2237V866.204H54.3997V866.996H53.2237V870.596C53.2237 870.812 53.2717 870.992 53.3677 871.136C53.4637 871.272 53.6117 871.34 53.8117 871.34C53.9397 871.34 54.0557 871.316 54.1597 871.268C54.2717 871.22 54.3597 871.164 54.4237 871.1L54.6877 871.772C54.5757 871.884 54.4317 871.972 54.2557 872.036C54.0877 872.108 53.8717 872.144 53.6077 872.144ZM58.383 872.144C57.943 872.144 57.543 872.064 57.183 871.904C56.831 871.744 56.531 871.528 56.283 871.256C56.035 870.976 55.843 870.652 55.707 870.284C55.579 869.916 55.515 869.52 55.515 869.096C55.515 868.68 55.579 868.288 55.707 867.92C55.843 867.544 56.035 867.22 56.283 866.948C56.531 866.676 56.831 866.46 57.183 866.3C57.543 866.14 57.943 866.06 58.383 866.06C58.823 866.06 59.219 866.14 59.571 866.3C59.931 866.46 60.235 866.676 60.483 866.948C60.731 867.22 60.919 867.544 61.047 867.92C61.183 868.288 61.251 868.68 61.251 869.096C61.251 869.52 61.183 869.916 61.047 870.284C60.919 870.652 60.731 870.976 60.483 871.256C60.235 871.528 59.931 871.744 59.571 871.904C59.219 872.064 58.823 872.144 58.383 872.144ZM58.383 871.34C58.695 871.34 58.967 871.28 59.199 871.16C59.439 871.032 59.639 870.868 59.799 870.668C59.967 870.46 60.091 870.22 60.171 869.948C60.259 869.676 60.303 869.392 60.303 869.096C60.303 868.8 60.259 868.52 60.171 868.256C60.091 867.984 59.967 867.748 59.799 867.548C59.639 867.34 59.439 867.176 59.199 867.056C58.967 866.928 58.695 866.864 58.383 866.864C58.071 866.864 57.795 866.928 57.555 867.056C57.315 867.176 57.111 867.34 56.943 867.548C56.783 867.748 56.659 867.984 56.571 868.256C56.491 868.52 56.451 868.8 56.451 869.096C56.451 869.392 56.491 869.676 56.571 869.948C56.659 870.22 56.783 870.46 56.943 870.668C57.111 870.868 57.315 871.032 57.555 871.16C57.795 871.28 58.071 871.34 58.383 871.34ZM66.8102 872V868.208C66.8102 867.696 66.6902 867.344 66.4502 867.152C66.2182 866.96 65.9062 866.864 65.5142 866.864C65.3382 866.864 65.1662 866.888 64.9982 866.936C64.8302 866.984 64.6702 867.052 64.5182 867.14C64.3662 867.22 64.2262 867.316 64.0982 867.428C63.9782 867.532 63.8782 867.644 63.7982 867.764V872H62.8982V866.204H63.7982V867.044C63.9022 866.924 64.0262 866.808 64.1702 866.696C64.3142 866.576 64.4742 866.468 64.6502 866.372C64.8342 866.276 65.0262 866.2 65.2262 866.144C65.4342 866.088 65.6462 866.06 65.8622 866.06C67.0942 866.06 67.7102 866.684 67.7102 867.932V872H66.8102ZM72.7093 872V871.208C73.4293 870.64 74.0653 870.128 74.6173 869.672C75.1693 869.208 75.6333 868.78 76.0093 868.388C76.3853 867.988 76.6693 867.616 76.8613 867.272C77.0533 866.92 77.1493 866.572 77.1493 866.228C77.1493 865.972 77.1013 865.752 77.0053 865.568C76.9093 865.384 76.7813 865.232 76.6213 865.112C76.4693 864.992 76.2933 864.904 76.0933 864.848C75.8933 864.792 75.6893 864.764 75.4813 864.764C75.0013 864.764 74.5773 864.856 74.2093 865.04C73.8413 865.224 73.5413 865.468 73.3093 865.772L72.6973 865.136C73.0013 864.728 73.3973 864.416 73.8853 864.2C74.3813 863.984 74.9133 863.876 75.4813 863.876C75.8173 863.876 76.1453 863.924 76.4653 864.02C76.7853 864.116 77.0693 864.26 77.3173 864.452C77.5733 864.644 77.7773 864.888 77.9293 865.184C78.0893 865.48 78.1693 865.828 78.1693 866.228C78.1693 866.636 78.0693 867.04 77.8693 867.44C77.6773 867.832 77.4053 868.228 77.0533 868.628C76.7093 869.02 76.3013 869.424 75.8293 869.84C75.3573 870.248 74.8413 870.672 74.2813 871.112H78.2053V872H72.7093ZM82.968 872.144C82.416 872.144 81.948 872.02 81.564 871.772C81.18 871.524 80.864 871.204 80.616 870.812C80.368 870.412 80.188 869.968 80.076 869.48C79.964 868.984 79.908 868.492 79.908 868.004C79.908 867.516 79.964 867.028 80.076 866.54C80.188 866.044 80.368 865.6 80.616 865.208C80.864 864.816 81.18 864.496 81.564 864.248C81.948 864 82.416 863.876 82.968 863.876C83.512 863.876 83.976 864 84.36 864.248C84.752 864.496 85.068 864.816 85.308 865.208C85.556 865.6 85.736 866.044 85.848 866.54C85.968 867.028 86.028 867.516 86.028 868.004C86.028 868.492 85.968 868.984 85.848 869.48C85.736 869.968 85.556 870.412 85.308 870.812C85.068 871.204 84.752 871.524 84.36 871.772C83.976 872.02 83.512 872.144 82.968 872.144ZM82.968 871.256C83.352 871.256 83.672 871.164 83.928 870.98C84.192 870.788 84.404 870.54 84.564 870.236C84.724 869.924 84.836 869.576 84.9 869.192C84.972 868.8 85.008 868.404 85.008 868.004C85.008 867.604 84.972 867.212 84.9 866.828C84.836 866.436 84.724 866.088 84.564 865.784C84.404 865.48 84.192 865.236 83.928 865.052C83.672 864.86 83.352 864.764 82.968 864.764C82.584 864.764 82.26 864.86 81.996 865.052C81.74 865.236 81.532 865.48 81.372 865.784C81.212 866.088 81.096 866.436 81.024 866.828C80.96 867.212 80.928 867.604 80.928 868.004C80.928 868.404 80.96 868.8 81.024 869.192C81.096 869.576 81.212 869.924 81.372 870.236C81.532 870.54 81.74 870.788 81.996 870.98C82.26 871.164 82.584 871.256 82.968 871.256ZM87.4717 872V871.208C88.1917 870.64 88.8277 870.128 89.3797 869.672C89.9317 869.208 90.3957 868.78 90.7717 868.388C91.1477 867.988 91.4317 867.616 91.6237 867.272C91.8157 866.92 91.9117 866.572 91.9117 866.228C91.9117 865.972 91.8637 865.752 91.7677 865.568C91.6717 865.384 91.5437 865.232 91.3837 865.112C91.2317 864.992 91.0557 864.904 90.8557 864.848C90.6557 864.792 90.4517 864.764 90.2437 864.764C89.7637 864.764 89.3397 864.856 88.9717 865.04C88.6037 865.224 88.3037 865.468 88.0717 865.772L87.4597 865.136C87.7637 864.728 88.1597 864.416 88.6477 864.2C89.1437 863.984 89.6757 863.876 90.2437 863.876C90.5797 863.876 90.9077 863.924 91.2277 864.02C91.5477 864.116 91.8317 864.26 92.0797 864.452C92.3357 864.644 92.5397 864.888 92.6917 865.184C92.8517 865.48 92.9317 865.828 92.9317 866.228C92.9317 866.636 92.8317 867.04 92.6317 867.44C92.4397 867.832 92.1677 868.228 91.8157 868.628C91.4717 869.02 91.0637 869.424 90.5917 869.84C90.1197 870.248 89.6037 870.672 89.0437 871.112H92.9677V872H87.4717ZM98.2464 872V869.972H94.4424V869.144L97.8744 863.996H99.2424V869.096H100.37V869.972H99.2424V872H98.2464ZM98.2464 864.92L95.4384 869.096H98.2464V864.92Z" fill="#121212"/>
<path d="M37.6545 892L34.4385 883.996H35.5785L38.2785 890.908L40.9785 883.996H42.1185L38.8905 892H37.6545ZM44.5449 892V885.316L43.2609 886.672L42.6609 886.06L44.6649 883.996H45.5409V892H44.5449ZM48.0353 892.12C47.8513 892.12 47.6953 892.056 47.5673 891.928C47.4393 891.8 47.3753 891.644 47.3753 891.46C47.3753 891.276 47.4393 891.12 47.5673 890.992C47.6953 890.864 47.8513 890.8 48.0353 890.8C48.2193 890.8 48.3753 890.864 48.5033 890.992C48.6313 891.12 48.6953 891.276 48.6953 891.46C48.6953 891.644 48.6313 891.8 48.5033 891.928C48.3753 892.056 48.2193 892.12 48.0353 892.12ZM50.2489 892V891.208C50.9689 890.64 51.6049 890.128 52.1569 889.672C52.7089 889.208 53.1729 888.78 53.5489 888.388C53.9249 887.988 54.2089 887.616 54.4009 887.272C54.5929 886.92 54.6889 886.572 54.6889 886.228C54.6889 885.972 54.6409 885.752 54.5449 885.568C54.4489 885.384 54.3209 885.232 54.1609 885.112C54.0089 884.992 53.8329 884.904 53.6329 884.848C53.4329 884.792 53.2289 884.764 53.0209 884.764C52.5409 884.764 52.1169 884.856 51.7489 885.04C51.3809 885.224 51.0809 885.468 50.8489 885.772L50.2369 885.136C50.5409 884.728 50.9369 884.416 51.4249 884.2C51.9209 883.984 52.4529 883.876 53.0209 883.876C53.3569 883.876 53.6849 883.924 54.0049 884.02C54.3249 884.116 54.6089 884.26 54.8569 884.452C55.1129 884.644 55.3169 884.888 55.4689 885.184C55.6289 885.48 55.7089 885.828 55.7089 886.228C55.7089 886.636 55.6089 887.04 55.4089 887.44C55.2169 887.832 54.9449 888.228 54.5929 888.628C54.2489 889.02 53.8409 889.424 53.3689 889.84C52.8969 890.248 52.3809 890.672 51.8209 891.112H55.7449V892H50.2489ZM58.2156 892.12C58.0316 892.12 57.8756 892.056 57.7476 891.928C57.6196 891.8 57.5556 891.644 57.5556 891.46C57.5556 891.276 57.6196 891.12 57.7476 890.992C57.8756 890.864 58.0316 890.8 58.2156 890.8C58.3996 890.8 58.5556 890.864 58.6836 890.992C58.8116 891.12 58.8756 891.276 58.8756 891.46C58.8756 891.644 58.8116 891.8 58.6836 891.928C58.5556 892.056 58.3996 892.12 58.2156 892.12ZM60.9798 892V885.316L59.6958 886.672L59.0958 886.06L61.0998 883.996H61.9758V892H60.9798ZM63.7382 892V891.208C64.4582 890.64 65.0942 890.128 65.6462 889.672C66.1982 889.208 66.6622 888.78 67.0382 888.388C67.4142 887.988 67.6982 887.616 67.8902 887.272C68.0822 886.92 68.1782 886.572 68.1782 886.228C68.1782 885.972 68.1302 885.752 68.0342 885.568C67.9382 885.384 67.8102 885.232 67.6502 885.112C67.4982 884.992 67.3222 884.904 67.1222 884.848C66.9222 884.792 66.7182 884.764 66.5102 884.764C66.0302 884.764 65.6062 884.856 65.2382 885.04C64.8702 885.224 64.5702 885.468 64.3382 885.772L63.7262 885.136C64.0302 884.728 64.4262 884.416 64.9142 884.2C65.4102 883.984 65.9422 883.876 66.5102 883.876C66.8462 883.876 67.1742 883.924 67.4942 884.02C67.8142 884.116 68.0982 884.26 68.3462 884.452C68.6022 884.644 68.8062 884.888 68.9582 885.184C69.1182 885.48 69.1982 885.828 69.1982 886.228C69.1982 886.636 69.0982 887.04 68.8982 887.44C68.7062 887.832 68.4342 888.228 68.0822 888.628C67.7382 889.02 67.3302 889.424 66.8582 889.84C66.3862 890.248 65.8702 890.672 65.3102 891.112H69.2342V892H63.7382ZM71.7048 892.12C71.5208 892.12 71.3648 892.056 71.2368 891.928C71.1088 891.8 71.0448 891.644 71.0448 891.46C71.0448 891.276 71.1088 891.12 71.2368 890.992C71.3648 890.864 71.5208 890.8 71.7048 890.8C71.8888 890.8 72.0448 890.864 72.1728 890.992C72.3008 891.12 72.3648 891.276 72.3648 891.46C72.3648 891.644 72.3008 891.8 72.1728 891.928C72.0448 892.056 71.8888 892.12 71.7048 892.12ZM76.4625 892.144C75.7825 892.144 75.1985 892.016 74.7105 891.76C74.2305 891.496 73.8665 891.184 73.6185 890.824L74.2065 890.2C74.4385 890.512 74.7465 890.768 75.1305 890.968C75.5225 891.16 75.9585 891.256 76.4385 891.256C77.0225 891.256 77.4785 891.124 77.8065 890.86C78.1425 890.588 78.3105 890.22 78.3105 889.756C78.3105 889.508 78.2625 889.296 78.1665 889.12C78.0705 888.936 77.9345 888.788 77.7585 888.676C77.5825 888.564 77.3705 888.48 77.1225 888.424C76.8825 888.368 76.6145 888.34 76.3185 888.34C76.1505 888.34 75.9865 888.34 75.8265 888.34C75.6665 888.34 75.5545 888.344 75.4905 888.352V887.44C75.5545 887.448 75.6665 887.452 75.8265 887.452C75.9945 887.452 76.1585 887.452 76.3185 887.452C76.5665 887.452 76.8025 887.428 77.0265 887.38C77.2585 887.324 77.4585 887.244 77.6265 887.14C77.7945 887.028 77.9265 886.892 78.0225 886.732C78.1265 886.564 78.1785 886.364 78.1785 886.132C78.1785 885.908 78.1305 885.712 78.0345 885.544C77.9385 885.376 77.8105 885.236 77.6505 885.124C77.4905 885.004 77.2985 884.916 77.0745 884.86C76.8585 884.796 76.6305 884.764 76.3905 884.764C75.9505 884.764 75.5625 884.848 75.2265 885.016C74.8905 885.176 74.5745 885.416 74.2785 885.736L73.7265 885.112C74.0145 884.76 74.3865 884.468 74.8425 884.236C75.2985 883.996 75.8385 883.876 76.4625 883.876C76.8465 883.876 77.2025 883.924 77.5305 884.02C77.8665 884.116 78.1545 884.256 78.3945 884.44C78.6345 884.616 78.8225 884.84 78.9585 885.112C79.1025 885.376 79.1745 885.676 79.1745 886.012C79.1745 886.3 79.1185 886.552 79.0065 886.768C78.9025 886.984 78.7665 887.168 78.5985 887.32C78.4305 887.472 78.2425 887.596 78.0345 887.692C77.8345 887.78 77.6385 887.84 77.4465 887.872C77.6305 887.888 77.8305 887.94 78.0465 888.028C78.2625 888.116 78.4625 888.24 78.6465 888.4C78.8305 888.56 78.9825 888.76 79.1025 889C79.2305 889.24 79.2945 889.52 79.2945 889.84C79.2945 890.176 79.2305 890.484 79.1025 890.764C78.9745 891.044 78.7865 891.288 78.5385 891.496C78.2985 891.696 78.0025 891.856 77.6505 891.976C77.2985 892.088 76.9025 892.144 76.4625 892.144ZM83.3222 892.144C82.6422 892.144 82.0582 892.016 81.5702 891.76C81.0902 891.496 80.7262 891.184 80.4782 890.824L81.0662 890.2C81.2982 890.512 81.6062 890.768 81.9902 890.968C82.3822 891.16 82.8182 891.256 83.2982 891.256C83.8822 891.256 84.3382 891.124 84.6662 890.86C85.0022 890.588 85.1702 890.22 85.1702 889.756C85.1702 889.508 85.1222 889.296 85.0262 889.12C84.9302 888.936 84.7942 888.788 84.6182 888.676C84.4422 888.564 84.2302 888.48 83.9822 888.424C83.7422 888.368 83.4742 888.34 83.1782 888.34C83.0102 888.34 82.8462 888.34 82.6862 888.34C82.5262 888.34 82.4142 888.344 82.3502 888.352V887.44C82.4142 887.448 82.5262 887.452 82.6862 887.452C82.8542 887.452 83.0182 887.452 83.1782 887.452C83.4262 887.452 83.6622 887.428 83.8862 887.38C84.1182 887.324 84.3182 887.244 84.4862 887.14C84.6542 887.028 84.7862 886.892 84.8822 886.732C84.9862 886.564 85.0382 886.364 85.0382 886.132C85.0382 885.908 84.9902 885.712 84.8942 885.544C84.7982 885.376 84.6702 885.236 84.5102 885.124C84.3502 885.004 84.1582 884.916 83.9342 884.86C83.7182 884.796 83.4902 884.764 83.2502 884.764C82.8102 884.764 82.4222 884.848 82.0862 885.016C81.7502 885.176 81.4342 885.416 81.1382 885.736L80.5862 885.112C80.8742 884.76 81.2462 884.468 81.7022 884.236C82.1582 883.996 82.6982 883.876 83.3222 883.876C83.7062 883.876 84.0622 883.924 84.3902 884.02C84.7262 884.116 85.0142 884.256 85.2542 884.44C85.4942 884.616 85.6822 884.84 85.8182 885.112C85.9622 885.376 86.0342 885.676 86.0342 886.012C86.0342 886.3 85.9782 886.552 85.8662 886.768C85.7622 886.984 85.6262 887.168 85.4582 887.32C85.2902 887.472 85.1022 887.596 84.8942 887.692C84.6942 887.78 84.4982 887.84 84.3062 887.872C84.4902 887.888 84.6902 887.94 84.9062 888.028C85.1222 888.116 85.3222 888.24 85.5062 888.4C85.6902 888.56 85.8422 888.76 85.9622 889C86.0902 889.24 86.1542 889.52 86.1542 889.84C86.1542 890.176 86.0902 890.484 85.9622 890.764C85.8342 891.044 85.6462 891.288 85.3982 891.496C85.1582 891.696 84.8622 891.856 84.5102 891.976C84.1582 892.088 83.7622 892.144 83.3222 892.144ZM90.1818 892.144C89.5018 892.144 88.9178 892.016 88.4298 891.76C87.9498 891.496 87.5858 891.184 87.3378 890.824L87.9258 890.2C88.1578 890.512 88.4658 890.768 88.8498 890.968C89.2418 891.16 89.6778 891.256 90.1578 891.256C90.7418 891.256 91.1978 891.124 91.5258 890.86C91.8618 890.588 92.0298 890.22 92.0298 889.756C92.0298 889.508 91.9818 889.296 91.8858 889.12C91.7898 888.936 91.6538 888.788 91.4778 888.676C91.3018 888.564 91.0898 888.48 90.8418 888.424C90.6018 888.368 90.3338 888.34 90.0378 888.34C89.8698 888.34 89.7058 888.34 89.5458 888.34C89.3858 888.34 89.2738 888.344 89.2098 888.352V887.44C89.2738 887.448 89.3858 887.452 89.5458 887.452C89.7138 887.452 89.8778 887.452 90.0378 887.452C90.2858 887.452 90.5218 887.428 90.7458 887.38C90.9778 887.324 91.1778 887.244 91.3458 887.14C91.5138 887.028 91.6458 886.892 91.7418 886.732C91.8458 886.564 91.8978 886.364 91.8978 886.132C91.8978 885.908 91.8498 885.712 91.7538 885.544C91.6578 885.376 91.5298 885.236 91.3698 885.124C91.2098 885.004 91.0178 884.916 90.7938 884.86C90.5778 884.796 90.3498 884.764 90.1098 884.764C89.6698 884.764 89.2818 884.848 88.9458 885.016C88.6098 885.176 88.2938 885.416 87.9978 885.736L87.4458 885.112C87.7338 884.76 88.1058 884.468 88.5618 884.236C89.0178 883.996 89.5578 883.876 90.1818 883.876C90.5658 883.876 90.9218 883.924 91.2498 884.02C91.5858 884.116 91.8738 884.256 92.1138 884.44C92.3538 884.616 92.5418 884.84 92.6778 885.112C92.8218 885.376 92.8938 885.676 92.8938 886.012C92.8938 886.3 92.8378 886.552 92.7258 886.768C92.6218 886.984 92.4858 887.168 92.3178 887.32C92.1498 887.472 91.9618 887.596 91.7538 887.692C91.5538 887.78 91.3578 887.84 91.1658 887.872C91.3498 887.888 91.5498 887.94 91.7658 888.028C91.9818 888.116 92.1818 888.24 92.3658 888.4C92.5498 888.56 92.7018 888.76 92.8218 889C92.9498 889.24 93.0138 889.52 93.0138 889.84C93.0138 890.176 92.9498 890.484 92.8218 890.764C92.6938 891.044 92.5058 891.288 92.2578 891.496C92.0178 891.696 91.7218 891.856 91.3698 891.976C91.0178 892.088 90.6218 892.144 90.1818 892.144Z" fill="#121212"/>
<path d="M43.278 926.81C42.382 927.715 41.2387 928.168 39.848 928.168C38.4573 928.168 37.314 927.715 36.418 926.81C35.522 925.895 35.074 924.738 35.074 923.338C35.074 921.938 35.522 920.785 36.418 919.88C37.314 918.965 38.4573 918.508 39.848 918.508C41.2387 918.508 42.382 918.965 43.278 919.88C44.174 920.785 44.622 921.938 44.622 923.338C44.622 924.738 44.174 925.895 43.278 926.81ZM39.848 926.712C40.772 926.712 41.5187 926.395 42.088 925.76C42.6573 925.116 42.942 924.309 42.942 923.338C42.942 922.358 42.6573 921.551 42.088 920.916C41.5187 920.281 40.772 919.964 39.848 919.964C38.9147 919.964 38.1633 920.281 37.594 920.916C37.034 921.551 36.754 922.358 36.754 923.338C36.754 924.318 37.034 925.125 37.594 925.76C38.1633 926.395 38.9147 926.712 39.848 926.712ZM49.7971 928.168C48.9011 928.168 48.1777 927.799 47.6271 927.062V930.576H46.1571V921.238H47.6271V922.162C48.1684 921.434 48.8917 921.07 49.7971 921.07C50.6837 921.07 51.4024 921.387 51.9531 922.022C52.5131 922.657 52.7931 923.52 52.7931 924.612C52.7931 925.704 52.5131 926.572 51.9531 927.216C51.4024 927.851 50.6837 928.168 49.7971 928.168ZM49.3631 926.866C49.9417 926.866 50.4037 926.656 50.7491 926.236C51.0944 925.816 51.2671 925.275 51.2671 924.612C51.2671 923.949 51.0944 923.413 50.7491 923.002C50.4037 922.582 49.9417 922.372 49.3631 922.372C49.0271 922.372 48.6957 922.461 48.3691 922.638C48.0424 922.815 47.7951 923.03 47.6271 923.282V925.956C47.7951 926.208 48.0424 926.423 48.3691 926.6C48.6957 926.777 49.0271 926.866 49.3631 926.866ZM57.3728 928.168C56.3462 928.168 55.4968 927.841 54.8248 927.188C54.1622 926.525 53.8308 925.667 53.8308 924.612C53.8308 923.623 54.1528 922.787 54.7968 922.106C55.4502 921.415 56.2715 921.07 57.2608 921.07C58.2595 921.07 59.0622 921.415 59.6688 922.106C60.2848 922.797 60.5928 923.679 60.5928 924.752V925.102H55.3708C55.4268 925.634 55.6462 926.077 56.0288 926.432C56.4115 926.787 56.9108 926.964 57.5268 926.964C57.8722 926.964 58.2175 926.899 58.5628 926.768C58.9175 926.637 59.2115 926.455 59.4448 926.222L60.1168 927.188C59.4355 927.841 58.5208 928.168 57.3728 928.168ZM59.1648 924.066C59.1462 923.599 58.9735 923.184 58.6468 922.82C58.3295 922.456 57.8675 922.274 57.2608 922.274C56.6822 922.274 56.2295 922.456 55.9028 922.82C55.5762 923.175 55.3942 923.59 55.3568 924.066H59.1648ZM68.0778 928H66.6078V923.772C66.6078 922.839 66.1551 922.372 65.2498 922.372C64.8951 922.372 64.5638 922.461 64.2558 922.638C63.9478 922.815 63.7005 923.03 63.5138 923.282V928H62.0438V921.238H63.5138V922.162C63.7658 921.863 64.1018 921.607 64.5218 921.392C64.9418 921.177 65.3991 921.07 65.8938 921.07C66.6125 921.07 67.1538 921.257 67.5178 921.63C67.8911 922.003 68.0778 922.54 68.0778 923.24V928Z" fill="#2B2B2B"/>
<path d="M88.84 923.64L82.84 917.64C82.74 917.54 82.61 917.49 82.49 917.49C82.37 917.49 82.23 917.54 82.14 917.64C81.94 917.84 81.94 918.15 82.14 918.35L87.79 924L82.14 929.65C81.94 929.85 81.94 930.16 82.14 930.36C82.34 930.56 82.65 930.56 82.85 930.36L88.85 924.36C89.05 924.16 89.05 923.85 88.85 923.65L88.84 923.64Z" fill="#2B2B2B"/>
<path d="M80.84 923.64L74.84 917.64C74.74 917.54 74.61 917.49 74.49 917.49C74.37 917.49 74.23 917.54 74.14 917.64C73.94 917.84 73.94 918.15 74.14 918.35L79.79 924L74.14 929.65C73.94 929.85 73.94 930.16 74.14 930.36C74.34 930.56 74.65 930.56 74.85 930.36L80.85 924.36C81.05 924.16 81.05 923.85 80.85 923.65L80.84 923.64Z" fill="#2B2B2B"/>
<defs>
<clipPath id="clip0_54_3723">
<rect width="128" height="112" fill="white" transform="translate(0 16)"/>
</clipPath>
<clipPath id="clip1_54_3723">
<rect width="40" height="40" fill="white" transform="translate(44 144)"/>
</clipPath>
<clipPath id="clip2_54_3723">
<rect width="40" height="40" fill="white" transform="translate(44 256)"/>
</clipPath>
<clipPath id="clip3_54_3723">
<rect width="40" height="40" fill="white" transform="translate(44 368)"/>
</clipPath>
<clipPath id="clip4_54_3723">
<rect width="40" height="40" fill="white" transform="translate(44 480)"/>
</clipPath>
<clipPath id="clip5_54_3723">
<rect width="40" height="40" fill="white" transform="translate(44 592)"/>
</clipPath>
<clipPath id="clip6_54_3723">
<rect width="40" height="40" fill="white" transform="translate(44 704)"/>
</clipPath>
</defs>
</svg>
