<svg width="40" height="40" viewBox="0 0 40 40" fill="none" xmlns="http://www.w3.org/2000/svg">
<g clip-path="url(#clip0_54_3797)">
<path d="M34.1666 19.9999C34.1666 12.1883 27.8116 5.83325 19.9999 5.83325C12.1883 5.83325 5.83325 12.1883 5.83325 19.9999C5.83325 27.8116 12.1883 34.1666 19.9983 34.1666H19.9999C27.8099 34.1666 34.1666 27.8116 34.1666 19.9999ZM32.4583 19.1666H27.4533C27.2499 14.8233 25.4866 10.8066 22.4649 7.74658C27.9149 8.83992 32.0816 13.4933 32.4583 19.1666ZM19.1666 8.46159V19.1666H14.2149C14.4266 15.0533 16.1749 11.2599 19.1666 8.46159ZM19.1666 20.8333V31.5383C16.1749 28.7383 14.4266 24.9449 14.2149 20.8333H19.1666ZM20.8333 31.5383V20.8333H25.7849C25.5733 24.9466 23.8233 28.7383 20.8333 31.5383ZM20.8333 19.1666V8.46159C23.8249 11.2616 25.5733 15.0533 25.7849 19.1666H20.8333ZM17.5349 7.74658C14.5133 10.8049 12.7499 14.8216 12.5466 19.1666H7.54159C7.91825 13.4933 12.0849 8.84159 17.5349 7.74658ZM7.54159 20.8333H12.5466C12.7499 25.1783 14.5133 29.1949 17.5349 32.2533C12.0849 31.1583 7.91825 26.5066 7.54159 20.8333ZM22.4633 32.2533C25.4849 29.1933 27.2483 25.1766 27.4516 20.8333H32.4566C32.0799 26.5066 27.9133 31.1599 22.4633 32.2533Z" fill="#2B2B2B"/>
</g>
<defs>
<clipPath id="clip0_54_3797">
<rect width="40" height="40" fill="white"/>
</clipPath>
</defs>
</svg>
