<svg width="40" height="40" viewBox="0 0 40 40" fill="none" xmlns="http://www.w3.org/2000/svg">
<path d="M19.1667 19.1666V6.67994C15.1533 9.8966 12.8 14.3366 12.5533 19.1666H19.1667Z" fill="#104C97"/>
<path d="M20.8333 20.8333V33.3199C24.8467 30.1033 27.2 25.6633 27.4467 20.8333H20.8333Z" fill="#104C97"/>
<path d="M19.1667 33.3199V20.8333H12.5533C12.8 25.6633 15.1533 30.1033 19.1667 33.3199Z" fill="#104C97"/>
<path d="M29.1133 19.1666H34.125C33.7433 12.6666 28.975 7.32994 22.735 6.10327C26.615 9.57327 28.8833 14.1783 29.1133 19.1666Z" fill="#104C97"/>
<path d="M29.1133 20.8333C28.8833 25.8216 26.615 30.4266 22.735 33.8966C28.975 32.6699 33.7433 27.3333 34.125 20.8333H29.1133Z" fill="#104C97"/>
<path d="M10.8867 20.8333H5.875C6.25667 27.3333 11.025 32.6699 17.265 33.8966C13.385 30.4266 11.1167 25.8216 10.8867 20.8333Z" fill="#104C97"/>
<path d="M10.8867 19.1666C11.1167 14.1783 13.385 9.57327 17.265 6.10327C11.025 7.32994 6.25667 12.6666 5.875 19.1666H10.8867Z" fill="#104C97"/>
<path d="M20.8333 6.67994V19.1666H27.4467C27.2 14.3366 24.8467 9.8966 20.8333 6.67994Z" fill="#104C97"/>
</svg>
