<svg width="40" height="40" viewBox="0 0 40 40" fill="none" xmlns="http://www.w3.org/2000/svg">
<g clip-path="url(#clip0_54_3789)">
<path d="M31.6667 20.8333C31.2067 20.8333 30.8333 21.2067 30.8333 21.6667V27.5H9.16667V18.3333C9.16667 17.8733 8.79333 17.5 8.33333 17.5C7.87333 17.5 7.5 17.8733 7.5 18.3333V31.6667C7.5 32.1267 7.87333 32.5 8.33333 32.5C8.79333 32.5 9.16667 32.1267 9.16667 31.6667V29.1667H30.8333V31.6667C30.8333 32.1267 31.2067 32.5 31.6667 32.5C32.1267 32.5 32.5 32.1267 32.5 31.6667V21.6667C32.5 21.2067 32.1267 20.8333 31.6667 20.8333Z" fill="#2B2B2B"/>
<path d="M10.8333 22.5C10.8333 24.3383 12.3283 25.8333 14.1667 25.8333C16.005 25.8333 17.5 24.3383 17.5 22.5C17.5 20.6617 16.005 19.1667 14.1667 19.1667C12.3283 19.1667 10.8333 20.6617 10.8333 22.5ZM15.8333 22.5C15.8333 23.42 15.085 24.1667 14.1667 24.1667C13.2483 24.1667 12.5 23.42 12.5 22.5C12.5 21.58 13.2483 20.8333 14.1667 20.8333C15.085 20.8333 15.8333 21.58 15.8333 22.5Z" fill="#2B2B2B"/>
<path d="M8.81833 15.6783L20 7.69001L31.1817 15.6783C31.33 15.7817 31.4983 15.8333 31.6667 15.8333C31.925 15.8333 32.1833 15.7117 32.345 15.485C32.6117 15.1083 32.525 14.59 32.1517 14.3217L20.485 5.98834C20.195 5.78334 19.8067 5.78334 19.5167 5.98834L7.85 14.3217C7.475 14.59 7.38833 15.11 7.65667 15.485C7.925 15.8583 8.44333 15.945 8.81833 15.6783Z" fill="#2B2B2B"/>
<path d="M20 19.1667C19.54 19.1667 19.1667 19.54 19.1667 20V25C19.1667 25.46 19.54 25.8333 20 25.8333H28.3333C28.7933 25.8333 29.1667 25.46 29.1667 25C29.1667 21.7833 26.55 19.1667 23.3333 19.1667H20ZM27.4167 24.1667H20.8333V20.8333H23.3333C25.345 20.8333 27.03 22.2667 27.4167 24.1667Z" fill="#2B2B2B"/>
</g>
<defs>
<clipPath id="clip0_54_3789">
<rect width="40" height="40" fill="white"/>
</clipPath>
</defs>
</svg>
