<svg width="40" height="40" viewBox="0 0 40 40" fill="none" xmlns="http://www.w3.org/2000/svg">
<path d="M31.6666 20.8333C31.2066 20.8333 30.8333 21.2067 30.8333 21.6667V27.5H9.16662V18.3333C9.16662 17.8733 8.79329 17.5 8.33329 17.5C7.87329 17.5 7.49996 17.8733 7.49996 18.3333V31.6667C7.49996 32.1267 7.87329 32.5 8.33329 32.5C8.79329 32.5 9.16662 32.1267 9.16662 31.6667V29.1667H30.8333V31.6667C30.8333 32.1267 31.2066 32.5 31.6666 32.5C32.1266 32.5 32.5 32.1267 32.5 31.6667V21.6667C32.5 21.2067 32.1266 20.8333 31.6666 20.8333Z" fill="#104C97"/>
<path d="M14.1666 25.8333C16.0076 25.8333 17.5 24.341 17.5 22.5C17.5 20.6591 16.0076 19.1667 14.1666 19.1667C12.3257 19.1667 10.8333 20.6591 10.8333 22.5C10.8333 24.341 12.3257 25.8333 14.1666 25.8333Z" fill="#104C97"/>
<path d="M8.81829 15.6783L20 7.69001L31.1816 15.6783C31.33 15.7817 31.4983 15.8333 31.6666 15.8333C31.925 15.8333 32.1833 15.7117 32.345 15.485C32.6116 15.1083 32.525 14.59 32.1516 14.3217L20.485 5.98834C20.195 5.78334 19.805 5.78334 19.515 5.98834L7.84829 14.3217C7.47329 14.59 7.38829 15.11 7.65496 15.485C7.92329 15.8633 8.44329 15.945 8.81829 15.6783Z" fill="#104C97"/>
<path d="M20 19.1667C19.54 19.1667 19.1666 19.54 19.1666 20V25C19.1666 25.46 19.54 25.8333 20 25.8333H28.3333C28.7933 25.8333 29.1666 25.46 29.1666 25C29.1666 21.7833 26.55 19.1667 23.3333 19.1667H20Z" fill="#104C97"/>
</svg>
