<svg width="40" height="40" viewBox="0 0 40 40" fill="none" xmlns="http://www.w3.org/2000/svg">
<g clip-path="url(#clip0_54_3801)">
<path d="M26.6667 7.5H6.66675C5.28841 7.5 4.16675 8.62167 4.16675 10V20.8333C4.16675 22.2117 5.28841 23.3333 6.66675 23.3333H15.8334C16.2934 23.3333 16.6667 22.96 16.6667 22.5C16.6667 22.04 16.2934 21.6667 15.8334 21.6667H6.66675C6.20675 21.6667 5.83341 21.2917 5.83341 20.8333V15.8333H28.3334C28.7934 15.8333 29.1667 15.46 29.1667 15V10C29.1667 8.62167 28.0451 7.5 26.6667 7.5ZM6.66675 9.16667H26.6667C27.1251 9.16667 27.5001 9.54167 27.5001 10V12.5H5.83341V10C5.83341 9.54167 6.20675 9.16667 6.66675 9.16667Z" fill="#2B2B2B"/>
<path d="M9.16675 17.5C8.70675 17.5 8.33341 17.8733 8.33341 18.3333C8.33341 18.7933 8.70675 19.1667 9.16675 19.1667H15.8334C16.2934 19.1667 16.6667 18.7933 16.6667 18.3333C16.6667 17.8733 16.2934 17.5 15.8334 17.5H9.16675Z" fill="#2B2B2B"/>
<path d="M34.9601 27.8183C35.0867 27.6467 35.1701 27.4533 35.2084 27.24L35.3534 26.42C35.5684 25.1967 34.1401 24.315 32.6034 23.725C33.5834 23.1767 34.2851 22.4717 34.1301 21.59L33.9851 20.7683C33.5584 18.3767 27.6567 19.345 26.9851 19.4667C25.3767 19.75 23.8867 20.1983 22.7867 20.735C21.3517 21.4333 20.7017 22.225 20.8534 23.0867L20.9984 23.9067C21.0901 24.4233 21.4751 24.8033 22.0867 25.0717C22.0301 25.875 22.6601 26.6183 24.0117 27.2767C24.0851 27.3117 24.1717 27.3433 24.2467 27.3783C23.2501 27.75 22.4984 28.3083 22.4984 29.1667V30C22.4984 32.43 28.4834 32.5 29.1651 32.5C29.8468 32.5 35.8318 32.43 35.8318 30V29.1667C35.8318 28.5917 35.4817 28.1583 34.9601 27.8183ZM33.7117 26.13L33.6284 26.81C33.3351 27.0933 31.4751 27.4283 28.4984 26.9033C26.2284 26.5017 24.7451 25.8583 24.0917 25.4783C24.3234 25.4917 24.5467 25.5133 24.7967 25.5133C25.7717 25.5133 26.8717 25.41 27.9967 25.2117C28.2334 25.17 29.1234 25.0017 30.1534 24.7C32.3501 25.2317 33.5684 25.9467 33.7117 26.13ZM27.2734 21.1067C28.4851 20.8933 29.5117 20.8217 30.3201 20.8217C31.4951 20.8217 32.2067 20.9733 32.3434 21.06L32.4984 21.725C32.3218 22.095 30.6851 23.0433 27.7084 23.5683C24.7334 24.0933 22.8717 23.76 22.6384 23.615L22.4834 22.9483C22.6617 22.58 24.2984 21.63 27.2734 21.1067ZM29.1667 30.8317C26.1451 30.8317 24.3684 30.18 24.1667 29.9983L24.1301 29.315C24.3217 29.0483 25.5184 28.5817 27.5401 28.4067C27.7634 28.4533 27.9818 28.505 28.2101 28.545C29.3351 28.7433 30.4351 28.8467 31.4101 28.8467C31.8284 28.8467 32.2234 28.8267 32.5884 28.79C32.7117 28.7767 32.8034 28.7483 32.9184 28.73C33.6384 28.9033 34.0751 29.0833 34.1667 29.1667L34.2034 29.85C33.9634 30.1817 32.1884 30.8317 29.1667 30.8317Z" fill="#2B2B2B"/>
</g>
<defs>
<clipPath id="clip0_54_3801">
<rect width="40" height="40" fill="white"/>
</clipPath>
</defs>
</svg>
