<svg width="40" height="40" viewBox="0 0 40 40" fill="none" xmlns="http://www.w3.org/2000/svg">
<path d="M20.8201 23.0867C20.9767 23.9717 21.9134 24.4983 23.6084 24.65C25.2634 24.7967 27.1034 24.52 27.8201 24.3933C30.8484 23.8583 34.2717 22.5883 33.9517 20.7733C33.5251 18.3817 27.6267 19.35 26.9517 19.4717C26.2801 19.5883 20.4017 20.695 20.8201 23.09V23.0867Z" fill="#104C97"/>
<path d="M32.6884 29.6417C32.3017 29.6767 31.9084 29.69 31.5217 29.69C30.1251 29.69 28.8001 29.5 28.0401 29.365C26.8401 29.1533 24.8851 28.7067 23.2651 27.8817C22.8017 28.2133 22.5001 28.63 22.5001 29.1667V30C22.5001 32.43 28.4851 32.5 29.1667 32.5C29.8484 32.5 35.8334 32.43 35.8334 30V29.1667C35.8334 28.9833 35.7901 28.8167 35.7251 28.6583C35.0734 29.1367 34.1201 29.5133 32.6884 29.6417Z" fill="#104C97"/>
<path d="M33.5701 24.1633C31.8551 25.24 29.4867 25.79 28.1101 26.0333C27.3501 26.1683 26.0234 26.3583 24.6267 26.3583C24.3834 26.3583 24.1401 26.34 23.8951 26.3267C25.1001 26.9717 26.7617 27.4483 28.3301 27.725C29.0484 27.85 30.8901 28.1217 32.5401 27.9817C34.2351 27.83 35.1717 27.305 35.3284 26.4183C35.4951 25.4683 34.6667 24.725 33.5701 24.1617V24.1633Z" fill="#104C97"/>
<path d="M26.6634 17.825C27.5234 17.6733 28.3601 17.5933 29.1667 17.5467V15.8317H4.16675V20.8317C4.16675 22.21 5.28841 23.3317 6.66675 23.3317H19.1767C18.5784 19.6633 24.2067 18.2583 26.6634 17.825ZM15.8334 19.1667H9.16675C8.70675 19.1667 8.33341 18.7933 8.33341 18.3333C8.33341 17.8733 8.70675 17.5 9.16675 17.5H15.8334C16.2934 17.5 16.6667 17.8733 16.6667 18.3333C16.6667 18.7933 16.2934 19.1667 15.8334 19.1667Z" fill="#104C97"/>
<path d="M29.1667 12.5V10C29.1667 8.62167 28.0451 7.5 26.6667 7.5H6.66675C5.28841 7.5 4.16675 8.62167 4.16675 10V12.5H29.1667Z" fill="#104C97"/>
</svg>
