<svg width="40" height="40" viewBox="0 0 40 40" fill="none" xmlns="http://www.w3.org/2000/svg">
<path d="M30.0001 5.83325H17.5001V13.3333C17.5001 13.7999 17.1334 14.1666 16.6667 14.1666H9.16675V33.3333C9.16675 33.7999 9.53341 34.1666 10.0001 34.1666H30.0001C30.4667 34.1666 30.8334 33.7999 30.8334 33.3333V6.66659C30.8334 6.19992 30.4667 5.83325 30.0001 5.83325ZM15.0001 19.1666H25.0001C25.4667 19.1666 25.8334 19.5333 25.8334 19.9999C25.8334 20.4666 25.4667 20.8333 25.0001 20.8333H15.0001C14.5334 20.8333 14.1667 20.4666 14.1667 19.9999C14.1667 19.5333 14.5334 19.1666 15.0001 19.1666ZM15.0001 23.3333H25.0001C25.4667 23.3333 25.8334 23.6999 25.8334 24.1666C25.8334 24.6333 25.4667 24.9999 25.0001 24.9999H15.0001C14.5334 24.9999 14.1667 24.6333 14.1667 24.1666C14.1667 23.6999 14.5334 23.3333 15.0001 23.3333ZM15.0001 27.4999H20.0001C20.4667 27.4999 20.8334 27.8666 20.8334 28.3333C20.8334 28.7999 20.4667 29.1666 20.0001 29.1666H15.0001C14.5334 29.1666 14.1667 28.7999 14.1667 28.3333C14.1667 27.8666 14.5334 27.4999 15.0001 27.4999Z" fill="#104C97"/>
<path d="M15.8334 12.4999V6.31659L9.65008 12.4999H15.8334Z" fill="#104C97"/>
</svg>
