<svg width="40" height="40" viewBox="0 0 40 40" fill="none" xmlns="http://www.w3.org/2000/svg">
<g clip-path="url(#clip0_54_3804)">
<path d="M30.0001 5.83325H16.6667C16.4501 5.83325 16.2334 5.91659 16.0834 6.08325L9.41675 12.7499C9.26675 12.8999 9.16675 13.1166 9.16675 13.3333V33.3333C9.16675 33.7999 9.53341 34.1666 10.0001 34.1666H30.0001C30.4667 34.1666 30.8334 33.7999 30.8334 33.3333V6.66659C30.8334 6.19992 30.4667 5.83325 30.0001 5.83325ZM15.8334 8.68325V12.4999H12.0167L15.8334 8.68325ZM29.1667 32.4999H10.8334V14.1666H16.6667C17.1334 14.1666 17.5001 13.7999 17.5001 13.3333V7.49992H29.1667V32.4999Z" fill="#2B2B2B"/>
<path d="M15.0001 19.1666C14.5334 19.1666 14.1667 19.5333 14.1667 19.9999C14.1667 20.4666 14.5334 20.8333 15.0001 20.8333H25.0001C25.4667 20.8333 25.8334 20.4666 25.8334 19.9999C25.8334 19.5333 25.4667 19.1666 25.0001 19.1666H15.0001Z" fill="#2B2B2B"/>
<path d="M25.0001 23.3333H15.0001C14.5334 23.3333 14.1667 23.6999 14.1667 24.1666C14.1667 24.6333 14.5334 24.9999 15.0001 24.9999H25.0001C25.4667 24.9999 25.8334 24.6333 25.8334 24.1666C25.8334 23.6999 25.4667 23.3333 25.0001 23.3333Z" fill="#2B2B2B"/>
<path d="M20.0001 27.4999H15.0001C14.5334 27.4999 14.1667 27.8666 14.1667 28.3333C14.1667 28.7999 14.5334 29.1666 15.0001 29.1666H20.0001C20.4667 29.1666 20.8334 28.7999 20.8334 28.3333C20.8334 27.8666 20.4667 27.4999 20.0001 27.4999Z" fill="#2B2B2B"/>
</g>
<defs>
<clipPath id="clip0_54_3804">
<rect width="40" height="40" fill="white"/>
</clipPath>
</defs>
</svg>
